<svg width="150" height="150" viewBox="0 0 150 150" fill="none" xmlns="http://www.w3.org/2000/svg">
<rect width="150" height="150" rx="12" fill="white"/>
<g clip-path="url(#clip0_796_954)">
<path d="M14 15.9062C14 14.8702 14.4045 13.8767 15.1244 13.1441C15.8444 12.4116 16.8209 12 17.8391 12H40.8737C41.8918 12 42.8683 12.4116 43.5883 13.1441C44.3083 13.8767 44.7128 14.8702 44.7128 15.9062C44.7128 16.9423 44.3083 17.9358 43.5883 18.6684C42.8683 19.4009 41.8918 19.8125 40.8737 19.8125C30.2723 19.8125 21.6782 28.4066 21.6782 39.008V39.3438C21.6782 40.3798 21.2737 41.3733 20.5537 42.1059C19.8338 42.8384 18.8573 43.25 17.8391 43.25C16.8209 43.25 15.8444 42.8384 15.1244 42.1059C14.4045 41.3733 14 40.3798 14 39.3438V15.9062ZM106.138 15.9062C106.138 14.8702 106.543 13.8767 107.263 13.1441C107.983 12.4116 108.959 12 109.977 12H133.012C134.03 12 135.007 12.4116 135.727 13.1441C136.447 13.8767 136.851 14.8702 136.851 15.9062V39.3438C136.851 40.3798 136.447 41.3733 135.727 42.1059C135.007 42.8384 134.03 43.25 133.012 43.25C131.994 43.25 131.017 42.8384 130.297 42.1059C129.577 41.3733 129.173 40.3798 129.173 39.3438V39.008C129.173 28.4066 120.579 19.8125 109.977 19.8125C108.959 19.8125 107.983 19.4009 107.263 18.6684C106.543 17.9358 106.138 16.9423 106.138 15.9062ZM17.8391 105.75C18.8573 105.75 19.8338 106.162 20.5537 106.894C21.2737 107.627 21.6782 108.62 21.6782 109.656V109.992C21.6782 120.593 30.2723 129.188 40.8737 129.188C41.8918 129.188 42.8683 129.599 43.5883 130.332C44.3083 131.064 44.7128 132.058 44.7128 133.094C44.7128 134.13 44.3083 135.123 43.5883 135.856C42.8683 136.588 41.8918 137 40.8737 137H17.8391C16.8209 137 15.8444 136.588 15.1244 135.856C14.4045 135.123 14 134.13 14 133.094V109.656C14 108.62 14.4045 107.627 15.1244 106.894C15.8444 106.162 16.8209 105.75 17.8391 105.75ZM133.012 105.75C134.03 105.75 135.007 106.162 135.727 106.894C136.447 107.627 136.851 108.62 136.851 109.656V133.094C136.851 134.13 136.447 135.123 135.727 135.856C135.007 136.588 134.03 137 133.012 137H109.977C108.959 137 107.983 136.588 107.263 135.856C106.543 135.123 106.138 134.13 106.138 133.094C106.138 132.058 106.543 131.064 107.263 130.332C107.983 129.599 108.959 129.188 109.977 129.188C120.579 129.188 129.173 120.593 129.173 109.992V109.656C129.173 108.62 129.577 107.627 130.297 106.894C131.017 106.162 131.994 105.75 133.012 105.75ZM44.7128 47.0891C44.7128 44.9688 46.4316 43.25 48.5518 43.25C50.6721 43.25 52.3909 44.9688 52.3909 47.0891V47.2234C52.3909 49.3437 50.6721 51.0625 48.5518 51.0625C46.4316 51.0625 44.7128 49.3437 44.7128 47.2234V47.0891Z" fill="url(#paint0_linear_796_954)"/>
<path d="M16.3888 74.4999L135.486 73.4583" stroke="#FFD9B7" stroke-width="7" stroke-linecap="round" stroke-linejoin="round"/>
<circle cx="76" cy="75" r="25" fill="#A4BE7B"/>
<path d="M88 75C88 75.2652 87.8946 75.5196 87.7071 75.7071C87.5196 75.8946 87.2652 76 87 76H77V86C77 86.2652 76.8946 86.5196 76.7071 86.7071C76.5196 86.8946 76.2652 87 76 87C75.7348 87 75.4804 86.8946 75.2929 86.7071C75.1054 86.5196 75 86.2652 75 86V76H65C64.7348 76 64.4804 75.8946 64.2929 75.7071C64.1054 75.5196 64 75.2652 64 75C64 74.7348 64.1054 74.4804 64.2929 74.2929C64.4804 74.1054 64.7348 74 65 74H75V64C75 63.7348 75.1054 63.4804 75.2929 63.2929C75.4804 63.1054 75.7348 63 76 63C76.2652 63 76.5196 63.1054 76.7071 63.2929C76.8946 63.4804 77 63.7348 77 64V74H87C87.2652 74 87.5196 74.1054 87.7071 74.2929C87.8946 74.4804 88 74.7348 88 75Z" fill="#F4EDCA"/>
</g>
<defs>
<linearGradient id="paint0_linear_796_954" x1="15.6117" y1="12" x2="113.928" y2="114.256" gradientUnits="userSpaceOnUse">
<stop stop-color="#A4BE7B"/>
</linearGradient>
<clipPath id="clip0_796_954">
<rect width="122.851" height="125" fill="white" transform="translate(14 12)"/>
</clipPath>
</defs>
</svg>
