<svg version="1.1" id="Layer_1" xmlns="http://www.w3.org/2000/svg" xmlns:xlink="http://www.w3.org/1999/xlink" x="0px" y="0px" viewBox="0 0 100 100" style="enable-background:new 0 0 100 100;" xml:space="preserve" width="100"  height="100" >
<g>
	<path d="M87.9,57.4c-2.4-1.9-5.7-1.9-8.1,0.1L65.4,69.7h-1.1v-1.3c0-4-3.3-7.3-7.3-7.3c0,0-11.5,0-11.5,0c-0.5-0.1-1-0.2-1.5-0.3
		c-1.2-0.2-2.4-0.5-3.6-0.7c-1.5-0.3-3-0.6-4.5-0.9c-1.4-0.3-2.8-0.6-4.2-0.8c-1.3-0.3-2.6-0.6-4-0.7c-1.3-0.1-2.5,0-3.8,0.3
		c-0.9,0.2-1.7,0.6-2.5,1.1c-0.3,0.2-0.5,0.4-0.8,0.6c-1.9,1.5-3.1,3.7-3.3,6.1h-6.2c-0.6,0-1,0.4-1,1s0.4,1,1,1h7.1
		c0.6,0,1-0.4,1-1c0-2.2,1-4.2,2.6-5.6c1.7-1.4,3.9-1.9,6-1.5l17.2,3.4c0.1,0,0.1,0,0.2,0H57c2.9,0,5.3,2.4,5.3,5.3v1.3H43.2
		c-0.6,0-1,0.4-1,1s0.4,1,1,1h22.5c0.2,0,0.5-0.1,0.6-0.2L81.1,59c1.6-1.3,3.9-1.4,5.5-0.1c0.9,0.8,1.5,1.9,1.6,3.1
		c0.1,1.2-0.4,2.4-1.3,3.3l-24.1,24c-1,1-2.4,1.4-3.7,1.2l-31.6-5.7c-0.1,0-0.1,0-0.2,0H11.2c-0.6,0-1,0.4-1,1s0.4,1,1,1h16
		l31.5,5.6c0.4,0.1,0.7,0.1,1.1,0.1c1.6,0,3.2-0.6,4.4-1.8l24.1-24c1.3-1.3,1.9-3,1.9-4.8C90.1,60.2,89.3,58.5,87.9,57.4z"></path>
	<g>
		<path d="M61.7,49.9c0.2,0,0.4,0,0.6,0c2.5,0,4.7-1.4,5.8-3.6c0.7-1.5,0.8-3.3,0.3-4.9c-0.2-0.5-0.4-0.9-0.6-1.3
			c3.5-0.4,6.1-3.6,5.6-7.1c-0.2-1.4-0.7-2.6-1.7-3.6c1.9-0.4,3.7-1.3,5.2-2.6c0.4-0.3,0.5-0.9,0.2-1.3c-2-2.8-4.3-4.3-7-4.7
			c-0.7-0.1-1.4-0.1-2,0c0.1-0.2,0.2-0.5,0.3-0.7c1.2-3.4-0.6-7-3.9-8.2c-1-0.3-2-0.4-3-0.3c-0.4-1.3-1.3-2.4-2.4-3.2
			c-2.5-1.8-6-1.5-8.2,0.7c-2.2-2.2-5.6-2.4-8.2-0.7c-1.1,0.8-1.9,1.9-2.4,3.2c-1-0.1-2,0-2.9,0.3c-3.3,1.2-5.1,4.9-3.9,8.2
			c0.1,0.2,0.2,0.5,0.3,0.7c-0.7-0.1-1.4-0.1-2,0c-2.6,0.3-5,2-7,4.7c-0.3,0.4-0.3,1,0.1,1.3c1.5,1.2,3.3,2.1,5.2,2.5
			c-1.8,1.9-2.3,4.8-1.1,7.2c0.7,1.5,2.1,2.7,3.7,3.3c0.5,0.2,0.9,0.3,1.4,0.3c-0.3,0.4-0.5,0.9-0.6,1.4c-0.6,1.6-0.5,3.4,0.3,4.9
			c1.1,2.2,3.3,3.7,5.8,3.7c0.2,0,0.4,0,0.6,0c-0.7,2.6,0.3,5.4,2.5,7c1.1,0.7,2.4,1.1,3.7,1.1c0.4,0,0.7,0,1.1-0.1
			c1.3-0.2,2.5-0.8,3.4-1.8c0.9,0.9,2.1,1.5,3.4,1.8c0.4,0.1,0.7,0.1,1.1,0.1c3.6,0,6.4-2.9,6.4-6.4C62,51,61.9,50.5,61.7,49.9z
			 M69.9,22.7c2,0.3,3.8,1.5,5.1,3.1c-2.3,1.6-5.2,2.1-7.9,1.5c-0.6-0.1-1.3-0.3-1.9-0.6c-0.5-0.8-1-1.5-1.6-2.2
			c0.4-0.3,0.9-0.6,1.3-0.8c0,0,0.1,0,0.1,0c0.2-0.1,0.3-0.2,0.5-0.3C67,22.8,68.5,22.6,69.9,22.7L69.9,22.7z M52,49.5v-2.7
			c1.1-0.3,2.1-1.1,2.5-2.2c0.2-0.5,0-1.1-0.5-1.3s-1.1,0-1.3,0.5C52.4,44.5,51.8,45,51,45l0,0c-0.7,0-1.3-0.4-1.6-1.1
			c-0.2-0.5-0.8-0.7-1.3-0.5s-0.7,0.8-0.5,1.3c0.4,1,1.3,1.8,2.4,2.1l0,0v2.7c-1.9-0.5-3.4-2.1-3.7-4c-1.7-7.6-3.8-15-7.6-18.2
			c0.5-0.8,1.1-1.5,1.7-2.2l0,0c0.9-1,2-1.9,3.1-2.7c2.5,1.3,5.5,0.8,7.5-1.2c2,1.9,4.9,2.4,7.4,1.2c1.2,0.7,2.2,1.6,3.2,2.6l0,0
			c0.6,0.7,1.2,1.4,1.7,2.2c-3.8,3-5.9,10.5-7.6,18.3C55.4,47.5,53.9,49.1,52,49.5z M35.3,19.4c-0.8-2.3,0.4-4.9,2.7-5.7
			c1.1-0.4,2.4-0.3,3.4,0.2c0.5,0.2,1.1-0.1,1.3-0.6c0.2-0.5,0-1-0.4-1.2l-0.1,0c0.3-0.8,0.9-1.6,1.6-2.1c2-1.4,4.8-0.9,6.2,1.1
			c0.4,0.5,1.1,0.5,1.6,0.1c0.1,0,0.1-0.1,0.1-0.1c1.4-2,4.2-2.5,6.2-1.1c0.8,0.5,1.3,1.3,1.6,2.1l0,0c-0.5,0.3-0.6,0.9-0.4,1.3
			c0.2,0.4,0.8,0.6,1.2,0.4c2.2-1.1,4.9-0.3,6,1.9c1.1,2.2,0.3,4.9-1.9,6c-0.8,0.4-1.5,0.8-2.2,1.3c-0.7-0.7-1.5-1.3-2.3-1.9
			c0.9-0.9,1.6-2.1,1.8-3.4c0.1-0.5-0.3-1-0.8-1.1c0,0,0,0,0,0c-0.5-0.1-1,0.3-1.1,0.8c0,0,0,0,0,0c-0.4,2.4-2.7,4.1-5.2,3.7
			c-1.2-0.2-2.2-0.9-2.9-1.8c-0.4-0.5-1.1-0.5-1.6-0.1c0,0-0.1,0.1-0.1,0.1c-1.4,2-4.2,2.5-6.3,1.1c-1-0.7-1.6-1.7-1.8-2.9
			c-0.1-0.5-0.6-0.9-1.1-0.8c-0.5,0.1-0.9,0.6-0.8,1.1c0.2,1.3,0.8,2.5,1.7,3.4c-0.8,0.6-1.6,1.2-2.2,2c-0.7-0.5-1.4-0.9-2.2-1.3
			C36.4,21.3,35.7,20.4,35.3,19.4z M32,22.7c1.5-0.1,3,0.1,4.4,0.8l0.4,0.2c0,0,0.1,0,0.1,0c0.5,0.2,0.9,0.5,1.3,0.8
			c-0.6,0.7-1.1,1.4-1.5,2.2c-3.2,1.3-6.8,1-9.7-1C28.2,24.1,30,23,32,22.7L32,22.7z M58.1,55.3c-2,1.4-4.8,0.9-6.3-1.1
			c-0.4-0.5-1.1-0.5-1.6-0.1c0,0-0.1,0.1-0.1,0.1c-1.4,2-4.2,2.5-6.3,1.1c-2-1.4-2.5-4.2-1.1-6.3c0.2-0.3,0.2-0.7,0.1-1l0,0
			c0-0.1-0.1-0.2-0.2-0.2c0,0-0.1-0.1-0.1-0.1l0,0h-0.1c-0.1-0.1-0.2-0.1-0.3-0.1l0,0c-0.2,0-0.4,0-0.6,0.1c-2.3,1-4.9,0-6-2.2
			c-1-2.1-0.2-4.6,1.9-5.8l0.2-0.1c0.5-0.2,0.7-0.8,0.5-1.3c0,0,0,0,0,0l0,0c-0.2-0.5-0.8-0.7-1.3-0.5l-0.2,0.1
			c-2.3,0.9-4.9-0.2-5.8-2.5c-0.9-2.2,0.1-4.6,2.1-5.7c0,0,0.1-0.1,0.1-0.1c0.7,0,1.5-0.1,2.2-0.3c0.7-0.1,1.3-0.3,2-0.6
			c4,3.1,6,12.3,7.1,17.3c0.6,3.2,3.3,5.6,6.5,5.7h0c3.3,0,6.1-2.4,6.6-5.7c1-4.7,3.2-14.4,7.1-17.3c0.6,0.3,1.3,0.5,2,0.6
			c0.7,0.2,1.5,0.2,2.2,0.3c0,0,0.1,0.1,0.1,0.1c2.2,1.1,3.1,3.8,2,6c-1,2.1-3.5,3-5.7,2.1l-0.2-0.1c-0.5-0.2-1.1,0-1.3,0.5l0,0
			c-0.2,0.5,0,1,0.5,1.2l0.2,0.1c2.1,1.1,3,3.7,2,5.9c-1.1,2.2-3.8,3.2-6,2.1c-0.2-0.1-0.4-0.1-0.6-0.1l0,0c-0.1,0-0.2,0.1-0.3,0.1
			h-0.1l0,0l-0.1,0.1c-0.1,0.1-0.1,0.1-0.2,0.2l0,0c-0.2,0.3-0.1,0.7,0.1,1c1.5,2,1,4.8-1,6.3C58.2,55.2,58.1,55.2,58.1,55.3z"></path>
		<path d="M47.1,28.1c-0.9,0-1.6,0.7-1.6,1.6c0,0.9,0.7,1.6,1.6,1.6c0.9,0,1.6-0.7,1.6-1.6c0,0,0,0,0,0C48.7,28.9,48,28.1,47.1,28.1
			z"></path>
		<circle cx="54.8" cy="29.7" r="1.6"></circle>
	</g>
</g>
</svg>