<svg xmlns:xlink="http://www.w3.org/1999/xlink" xmlns="http://www.w3.org/2000/svg" fill="none" viewBox="0 0 1281 1280" width="1281"  height="1280" ><path fill="#000" d="M1278.67 465.613c-4.02-32.604-20.32-58.421-48.45-76.734-96.35-62.708-315.049-19.088-419.729 7.052 1.114-7.964 1.77-16.006 1.77-24.088 0-58.058-28.958-109.386-73.098-140.6l44.286-51.391c16.516 11.63 36.12 17.973 56.74 17.973 26.412 0 51.26-10.286 69.938-28.978 38.562-38.558 38.562-101.307 0-139.88-38.563-38.563-101.312-38.563-139.88 0-18.688 18.683-28.979 43.521-28.979 69.937 0 21.364 6.828 41.625 19.281 58.5l-49.666 57.636c-21.636-9.812-45.568-15.416-70.834-15.416-25.26 0-49.197 5.604-70.833 15.416l-49.667-57.636c12.454-16.875 19.282-37.136 19.282-58.5 0-26.412-10.287-51.26-28.979-69.937-38.547-38.536-101.297-38.568-139.88 0-38.563 38.568-38.563 101.317 0 139.88 18.683 18.688 43.521 28.978 69.937 28.978 20.615 0 40.224-6.338 56.74-17.973l44.287 51.391c-44.145 31.213-73.099 82.541-73.099 140.6 0 8.047.646 16.057 1.756 23.989-104.834-26.161-323.12-69.615-419.36-6.953C22.107 407.191 5.81 433.015 1.79 465.644l-.661 5.839c-7.058 67.708 21.26 132.396 75.677 173.427-4.651 65.806 23.651 128.177 77.079 167.84 34.25 25.432 74.437 38.469 115.136 38.469 25.297 0 50.786-5.036 75.182-15.271l39.563-16.604a377.489 377.489 0 0 0 .187 68.651c21.422 227.485 237.68 382.585 246.88 389.075 2.75 1.95 5.98 2.93 9.214 2.93s6.464-.98 9.229-2.94c9.193-6.49 225.453-161.6 246.88-389.075a377.348 377.348 0 0 0 .146-69.334l41.193 17.287c24.391 10.234 49.886 15.271 75.175 15.271 40.69 0 80.88-13.037 115.12-38.47 53.71-39.869 82.06-102.661 77.05-168.826 53.6-41.088 81.5-105.24 74.5-172.48l-.67-5.82ZM792.853 51.6c13.047-13.036 30.172-19.563 47.312-19.563 17.136 0 34.266 6.521 47.312 19.563 26.088 26.093 26.088 68.536 0 94.625-12.64 12.641-29.442 19.604-47.312 19.604-17.874 0-34.672-6.963-47.312-19.604-12.64-12.64-19.604-29.437-19.604-47.312.006-17.869 6.969-34.672 19.604-47.312V51.6Zm-400.266 94.625c-26.088-26.088-26.088-68.53 0-94.625 26.093-26.079 68.546-26.079 94.625 0 12.641 12.64 19.604 29.443 19.604 47.312 0 17.875-6.964 34.672-19.604 47.312-12.641 12.641-29.437 19.604-47.312 19.604-17.869-.005-34.677-6.964-47.312-19.604l-.001.001Zm107.229 225.614c0-77.312 62.896-140.214 140.213-140.214 77.312 0 140.214 62.896 140.214 140.214 0 11.187-1.5 22.27-4.11 33.068-12.916 3.547-21.245 6.026-23.218 6.625a16.008 16.008 0 0 0-11.016 11.963l-20.495 95.636-162.386-.005-20.495-95.636a16.024 16.024 0 0 0-11.016-11.963c-1.994-.605-10.474-3.131-23.614-6.735-2.594-10.76-4.084-21.803-4.084-32.953h.007Zm365.827 476.386H414.429c.604-47.838 11.245-95.254 31.792-142.026h387.64c20.547 46.765 31.194 94.182 31.792 142.026h-.01Zm-403.92-174.026c22.473-41.636 52.88-82.714 91.193-123.068h174.24c38.312 40.354 68.719 81.432 91.193 123.068H461.723ZM32.936 474.825l.604-5.286c2.844-23.125 14.016-40.729 34.136-53.828 30.855-20.093 77.807-27.432 129.943-27.432 122.478 0 273.56 40.489 311.626 51.271l18.422 85.964-271.814 114.062C202.76 661.863 143.369 654.612 97 620.186c-46.041-34.178-69.99-88.531-64.068-145.36l.004-.001Zm298.853 331.627c-53.109 22.265-112.478 15.036-158.853-19.391-39.885-29.609-63.104-74.374-64.776-122.781 26.703 13.224 55.645 20.068 84.891 20.068 25.286 0 50.786-5.036 75.172-15.271l220.24-92.421c-27.88 35.12-50.364 70.787-67.276 106.927-.115.255-.235.495-.339.76-15.068 32.355-25.667 65.083-31.896 98.115l-57.163 23.994Zm308.24 437.518c-27.421-21.38-109.765-90.72-167.04-189.72h334.094c-57.282 99-139.627 168.34-167.054 189.72Zm184.107-221.72H455.923c-20.344-41.801-35.516-87.894-40.156-137.425-.146-1.531-.167-3.062-.287-4.593h449.094c-.125 1.531-.146 3.062-.287 4.593-4.641 49.536-19.817 95.631-40.156 137.425h.005ZM1108.7 787.079c-46.36 34.406-105.75 41.645-158.844 19.385l-58.901-24.719c-6.245-32.786-16.803-65.276-31.76-97.39-.105-.261-.219-.5-.339-.761-16.948-36.218-39.489-71.964-67.453-107.156l220.787 92.651c24.38 10.24 49.87 15.271 75.17 15.271 29.7 0 59.11-7.026 86.16-20.662-1.5 48.631-24.78 93.64-64.83 123.38l.01.001Zm74.72-166.88c-46.34 34.432-105.73 41.661-158.84 19.385L752.767 525.521l18.421-85.964c54.265-15.385 338.182-91.156 441.562-23.854 20.12 13.104 31.3 30.713 34.14 53.806l.6 5.287c5.92 56.86-18.03 111.224-64.08 145.4l.01.003Z"></path></svg>