<svg width="24" height="23" viewBox="0 0 24 23" fill="none" xmlns="http://www.w3.org/2000/svg">
<mask id="mask0_228_1445" style="mask-type:alpha" maskUnits="userSpaceOnUse" x="2" y="0" width="21" height="23">
<path d="M18.0005 5.69637C18.0005 8.84239 15.3142 11.3927 12.0005 11.3927C8.68683 11.3927 6.00054 8.84239 6.00054 5.69637C6.00054 2.55035 8.68683 0 12.0005 0C15.3142 0 18.0005 2.55035 18.0005 5.69637Z" fill="#006FFD"/>
<path d="M2.00049 18.9884C2.00049 15.8424 4.68678 13.2921 8.00049 13.2921H16.0005C19.3142 13.2921 22.0005 15.8424 22.0005 18.9884V19.9378C22.0005 21.5108 20.6573 22.786 19.0005 22.786H5.00049C3.34363 22.786 2.00049 21.5108 2.00049 19.9378V18.9884Z" fill="#006FFD"/>
</mask>
<g mask="url(#mask0_228_1445)">
<rect x="0.000488281" y="-0.00109863" width="24" height="22.7855" fill="black"/>
</g>
</svg>
