<svg width="20" height="23" viewBox="0 0 20 23" fill="none" xmlns="http://www.w3.org/2000/svg">
<path d="M20 1.76919V22.1149C19.9999 22.2689 19.9544 22.4203 19.8679 22.5541C19.7814 22.6878 19.6569 22.7992 19.5067 22.8773C19.3566 22.9555 19.186 22.9975 19.0118 22.9994C18.8376 23.0013 18.6659 22.9629 18.5137 22.888L10 18.7035L1.48633 22.888C1.33412 22.9631 1.16235 23.0017 0.98808 22.9999C0.813806 22.9982 0.643082 22.9561 0.492847 22.878C0.342612 22.7998 0.218089 22.6883 0.131635 22.5544C0.0451818 22.4206 -0.000197327 22.269 6.44988e-07 22.1149V1.76919C0.000524506 1.30011 0.211407 0.850382 0.586366 0.518695C0.961325 0.187008 1.46973 0.000463405 2 0H18C18.5303 0.000463112 19.0387 0.187008 19.4136 0.518695C19.7886 0.850382 19.9995 1.30011 20 1.76919Z" fill="black"/>
</svg>
