<svg width="18" height="25" viewBox="0 0 18 25" fill="none" xmlns="http://www.w3.org/2000/svg">
<path d="M16 0.5H2C1.60218 0.5 1.22064 0.658035 0.93934 0.93934C0.658035 1.22064 0.5 1.60218 0.5 2V24C0.500044 24.0892 0.523967 24.1768 0.569286 24.2537C0.614605 24.3306 0.679668 24.3939 0.757725 24.4371C0.835781 24.4804 0.923986 24.5019 1.01319 24.4996C1.10239 24.4972 1.18933 24.471 1.265 24.4237L9 19.59L16.7362 24.4237C16.8153 24.4733 16.9067 24.4997 17 24.5C17.0848 24.4998 17.1682 24.4783 17.2425 24.4375C17.3206 24.3942 17.3856 24.3308 17.4309 24.2539C17.4762 24.1769 17.5 24.0893 17.5 24V2C17.5 1.60218 17.342 1.22064 17.0607 0.93934C16.7794 0.658035 16.3978 0.5 16 0.5ZM16.5 23.0975L9.26375 18.5763C9.18428 18.5266 9.09246 18.5002 8.99875 18.5002C8.90504 18.5002 8.81322 18.5266 8.73375 18.5763L1.5 23.0975V2C1.5 1.86739 1.55268 1.74021 1.64645 1.64645C1.74021 1.55268 1.86739 1.5 2 1.5H16C16.1326 1.5 16.2598 1.55268 16.3536 1.64645C16.4473 1.74021 16.5 1.86739 16.5 2V23.0975Z" fill="black"/>
</svg>
