<svg xmlns="http://www.w3.org/2000/svg" xmlns:xlink="http://www.w3.org/1999/xlink" version="1.1" x="0px" y="0px" viewBox="0 0 100 100" style="enable-background:new 0 0 100 100;" xml:space="preserve" width="100"  height="100" ><style type="text/css">
	.st0{fill:none;stroke:#000000;stroke-width:2;stroke-linecap:round;stroke-linejoin:round;stroke-miterlimit:10;}
	.st1{fill:none;stroke:#000000;stroke-width:2;stroke-miterlimit:10;}
	.st2{fill:none;stroke:#000000;stroke-width:2;stroke-linecap:round;stroke-miterlimit:10;}
</style><path d="M49.5,34.5l1.3-1.3c0.4-0.4,0.4-1,0-1.4s-1-0.4-1.4,0l-17,17c-0.4,0.4-0.4,1,0,1.4c0.2,0.2,0.5,0.3,0.7,0.3s0.5-0.1,0.7-0.3  l1.3-1.3l37.3,37.3c1.9,1.9,4.4,2.8,6.9,2.8c2.5,0,5-0.9,6.9-2.8l0.6-0.6c1.8-1.8,2.9-4.3,2.9-6.9c0-2.6-1-5-2.9-6.9L49.5,34.5z   M85.3,84.1l-0.6,0.6c-3,3-7.9,3-10.9,0L36.5,47.5l11.5-11.5l7.2,7.2l-3.6,3.6c-0.4,0.4-0.4,1,0,1.4c0.2,0.2,0.5,0.3,0.7,0.3  s0.5-0.1,0.7-0.3l3.6-3.6l2.7,2.7l-3.6,3.6c-0.4,0.4-0.4,1,0,1.4c0.2,0.2,0.5,0.3,0.7,0.3s0.5-0.1,0.7-0.3l3.6-3.6l2.7,2.7L59.9,55  c-0.4,0.4-0.4,1,0,1.4c0.2,0.2,0.5,0.3,0.7,0.3s0.5-0.1,0.7-0.3l3.6-3.6l2.7,2.7L64,59.2c-0.4,0.4-0.4,1,0,1.4  c0.2,0.2,0.5,0.3,0.7,0.3s0.5-0.1,0.7-0.3l3.6-3.6l2.7,2.7l-3.6,3.6c-0.4,0.4-0.4,1,0,1.4c0.2,0.2,0.5,0.3,0.7,0.3s0.5-0.1,0.7-0.3  l3.6-3.6l2.7,2.7l-3.6,3.6c-0.4,0.4-0.4,1,0,1.4c0.2,0.2,0.5,0.3,0.7,0.3s0.5-0.1,0.7-0.3l3.6-3.6l8.1,8.1c1.5,1.5,2.3,3.4,2.3,5.5  C87.6,80.7,86.8,82.7,85.3,84.1z"></path><path d="M17.3,38.4c0.7,0.3,1.5,0.4,2.2,0.4c0.9,0,1.8-0.2,2.6-0.6c1.5-0.7,2.7-1.9,3.3-3.5s0.5-3.3-0.2-4.8s-1.9-2.7-3.5-3.3  c-1.6-0.6-3.3-0.5-4.8,0.2c-3.1,1.4-4.5,5.1-3.1,8.3C14.5,36.6,15.7,37.8,17.3,38.4z M17.7,28.6c1-0.5,2.2-0.5,3.3-0.1  c1.1,0.4,1.9,1.2,2.4,2.2c0.5,1,0.5,2.2,0.1,3.3c-0.4,1.1-1.2,1.9-2.2,2.4S19,36.9,18,36.5c-1.1-0.4-1.9-1.2-2.4-2.2  C14.6,32.2,15.6,29.6,17.7,28.6z"></path><path d="M17.7,34.4c0.1,0,0.3,0,0.4-0.1c0.5-0.2,0.7-0.8,0.5-1.3c-0.1-0.2-0.1-0.5,0-0.8c0.1-0.3,0.3-0.5,0.5-0.6  c0.5-0.2,0.7-0.8,0.5-1.3c-0.2-0.5-0.8-0.7-1.3-0.5c-0.7,0.3-1.3,0.9-1.6,1.7s-0.3,1.6,0.1,2.3C16.9,34.2,17.3,34.4,17.7,34.4z"></path><path d="M27.2,20c0.6,0.2,1.2,0.3,1.8,0.3c0.7,0,1.4-0.2,2.1-0.5c1.2-0.6,2.2-1.6,2.7-2.8c0.5-1.3,0.4-2.6-0.1-3.9  c-1.2-2.5-4.2-3.7-6.7-2.5c-2.5,1.2-3.7,4.2-2.5,6.7C24.9,18.6,25.9,19.6,27.2,20z M27.7,12.5c0.4-0.2,0.8-0.3,1.3-0.3  c1.2,0,2.3,0.7,2.8,1.8c0.3,0.7,0.4,1.6,0.1,2.4c-0.3,0.8-0.9,1.4-1.6,1.7c-0.7,0.3-1.6,0.4-2.4,0.1c-0.8-0.3-1.4-0.9-1.7-1.6  C25.5,15,26.2,13.2,27.7,12.5z"></path><path d="M27.6,17c0.1,0,0.3,0,0.4-0.1c0.5-0.2,0.7-0.8,0.5-1.3c-0.1-0.3,0-0.6,0.3-0.7c0.5-0.2,0.7-0.8,0.5-1.3  C29,13,28.4,12.7,27.9,13c-1.3,0.6-1.9,2.1-1.3,3.4C26.8,16.7,27.2,17,27.6,17z"></path><path d="M22.6,46.3c-1.3-0.5-2.6-0.4-3.9,0.1c-1.2,0.6-2.2,1.6-2.7,2.8s-0.4,2.6,0.1,3.9c0.6,1.2,1.6,2.2,2.8,2.7  c0.6,0.2,1.2,0.3,1.8,0.3c0.7,0,1.4-0.2,2.1-0.5c1.2-0.6,2.2-1.6,2.7-2.8c0.5-1.3,0.4-2.6-0.1-3.9S23.9,46.7,22.6,46.3z M23.7,52.1  c-0.3,0.8-0.9,1.4-1.6,1.7c-0.7,0.3-1.6,0.4-2.4,0.1C19,53.6,18.4,53,18,52.3s-0.4-1.6-0.1-2.4c0.3-0.8,0.9-1.4,1.6-1.7  c0.4-0.2,0.8-0.3,1.3-0.3c0.4,0,0.7,0.1,1.1,0.2c0.8,0.3,1.4,0.9,1.7,1.6S24,51.3,23.7,52.1z"></path><path d="M19.8,48.7c-0.6,0.3-1.1,0.8-1.3,1.4s-0.2,1.3,0.1,2c0.2,0.4,0.5,0.6,0.9,0.6c0.1,0,0.3,0,0.4-0.1c0.5-0.2,0.7-0.8,0.5-1.3  c-0.1-0.1-0.1-0.3,0-0.4c0.1-0.1,0.2-0.3,0.3-0.3c0.5-0.2,0.7-0.8,0.5-1.3C20.9,48.7,20.3,48.5,19.8,48.7z"></path><path d="M31.3,27.4c-0.6,1.7-0.6,3.5,0.2,5.2c1.1,2.5,3.6,4,6.2,4c0.9,0,1.9-0.2,2.8-0.6c3.4-1.6,4.9-5.6,3.4-9  c-0.8-1.7-2.1-2.9-3.8-3.5c-1.7-0.6-3.5-0.6-5.2,0.2C33.2,24.4,32,25.7,31.3,27.4z M33.2,28.1c0.4-1.2,1.3-2.1,2.5-2.7  c0.6-0.3,1.3-0.4,2-0.4c0.6,0,1.1,0.1,1.7,0.3c1.2,0.4,2.2,1.3,2.7,2.5c1.1,2.4,0,5.3-2.4,6.3c-1.2,0.5-2.5,0.6-3.7,0.1  c-1.2-0.4-2.2-1.3-2.7-2.5S32.8,29.3,33.2,28.1z"></path><path d="M35.7,31.8c0.1,0,0.3,0,0.4-0.1c0.5-0.2,0.7-0.8,0.5-1.3c-0.3-0.6,0-1.3,0.6-1.6c0.5-0.2,0.7-0.8,0.5-1.3s-0.8-0.7-1.3-0.5  c-1.6,0.7-2.3,2.6-1.6,4.3C35,31.6,35.3,31.8,35.7,31.8z"></path><path d="M26.4,62.3c0,2.4,2,4.4,4.4,4.4s4.4-2,4.4-4.4s-2-4.4-4.4-4.4S26.4,59.8,26.4,62.3z M33.3,62.3c0,1.3-1.1,2.4-2.4,2.4  s-2.4-1.1-2.4-2.4s1.1-2.4,2.4-2.4S33.3,60.9,33.3,62.3z"></path><path d="M51.2,22.8c2.4,0,4.4-2,4.4-4.4s-2-4.4-4.4-4.4s-4.4,2-4.4,4.4S48.8,22.8,51.2,22.8z M51.2,15.9c1.3,0,2.4,1.1,2.4,2.4  s-1.1,2.4-2.4,2.4s-2.4-1.1-2.4-2.4S49.9,15.9,51.2,15.9z"></path><path d="M65.8,34.3c2.4,0,4.4-2,4.4-4.4s-2-4.4-4.4-4.4s-4.4,2-4.4,4.4S63.3,34.3,65.8,34.3z M65.8,27.4c1.3,0,2.4,1.1,2.4,2.4  s-1.1,2.4-2.4,2.4s-2.4-1.1-2.4-2.4S64.4,27.4,65.8,27.4z"></path></svg>