<svg xmlns="http://www.w3.org/2000/svg" xmlns:xlink="http://www.w3.org/1999/xlink" version="1.1" x="0px" y="0px" viewBox="0 0 100 100" style="enable-background:new 0 0 100 100;" xml:space="preserve" width="100"  height="100" ><path d="M81.9672852,68.9423828c0.03125-0.3916016,0.0458984-0.7583008,0.0458984-1.1181641  c0-8.8881836-7.2314453-16.1196289-16.1196289-16.1196289c-5.3061523,0-10.184082,2.5654297-13.2070312,6.9033203  c-1.3579102-0.4667969-2.7744141-0.703125-4.222168-0.703125c-6.4331055,0-11.7680664,4.5712891-12.8242188,10.7978516  c-6.4790039-0.8178711-11.996582,4.2822266-11.996582,10.6069336C23.6435547,85.2041016,28.4394531,90,34.3339844,90h45.0585938  c5.8945312,0,10.6904297-4.7958984,10.6904297-10.6904297C90.0830078,74.3251953,86.7231445,70.105957,81.9672852,68.9423828z   M79.3925781,88H34.3339844c-4.7919922,0-8.6904297-3.8984375-8.6904297-8.6904297s3.8984375-8.690918,8.6904297-8.690918  c0.6308594,0,1.2836914,0.0761719,1.9414062,0.2265625c0.2807617,0.0634766,0.5776367,0.0029297,0.8115234-0.1669922  s0.3823242-0.4331055,0.4072266-0.7211914c0.4912109-5.6367188,5.3095703-10.0522461,10.9702148-10.0522461  c1.4614258,0,2.8847656,0.2841797,4.230957,0.8447266c0.4516602,0.1870117,0.9726562,0.0209961,1.2319336-0.3930664  c2.605957-4.1650391,7.0791016-6.6518555,11.9663086-6.6518555c7.7856445,0,14.1196289,6.3339844,14.1196289,14.1196289  c0,0.543457-0.0400391,1.1132812-0.1269531,1.7939453c-0.0683594,0.5375977,0.3041992,1.0317383,0.8398438,1.1142578  c4.2626953,0.6577148,7.3569336,4.2651367,7.3569336,8.5771484C88.0830078,84.1015625,84.1845703,88,79.3925781,88z"></path><path d="M20.6904297,48.2954102h45.059082c5.8945312,0,10.6904297-4.7958984,10.6904297-10.690918  c0-6.324707-5.5327148-11.4179688-11.9970703-10.6064453c-1.0551758-6.2275391-6.3901367-10.7978516-12.8242188-10.7978516  c-1.4477539,0-2.8642578,0.2363281-4.222168,0.703125C44.3735352,12.5654297,39.4956055,10,34.1894531,10  c-8.8881836,0-16.1196289,7.2314453-16.1196289,16.1196289c0,0.3588867,0.0151367,0.7255859,0.0458984,1.1181641  C13.3598633,28.4008789,10,32.6196289,10,37.6044922C10,43.4995117,14.7958984,48.2954102,20.6904297,48.2954102z   M19.3574219,29.027832c0.5356445-0.0825195,0.9082031-0.5766602,0.8398438-1.1142578  c-0.0869141-0.6835938-0.1274414-1.253418-0.1274414-1.7939453C20.0698242,18.3339844,26.4038086,12,34.1894531,12  c4.887207,0,9.3608398,2.4868164,11.9663086,6.6518555c0.2587891,0.4145508,0.7797852,0.5810547,1.2319336,0.3930664  c1.3461914-0.5605469,2.7695312-0.8447266,4.230957-0.8447266c5.6611328,0,10.4794922,4.4150391,10.9702148,10.0517578  c0.0249023,0.2875977,0.1733398,0.5507812,0.4072266,0.7211914c0.2329102,0.1699219,0.5288086,0.2304688,0.8115234,0.1669922  c5.6401367-1.2856445,10.6323242,3.0405273,10.6323242,8.4643555c0,4.7919922-3.8984375,8.690918-8.6904297,8.690918h-45.059082  C15.8984375,46.2954102,12,42.3964844,12,37.6044922C12,33.2924805,15.0942383,29.6850586,19.3574219,29.027832z"></path></svg>