<svg width="24" height="24" viewBox="0 0 24 24" fill="none" xmlns="http://www.w3.org/2000/svg">
  <path d="M22.4231 18.35L12.6253 11L15.224 9.05C15.2708 9.01517 15.3087 8.96992 15.3349 8.91784C15.3612 8.86576 15.3748 8.8083 15.375 8.75C15.375 7.85489 15.0194 6.99645 14.3864 6.36351C13.7535 5.73058 12.8951 5.375 12 5.375C11.1049 5.375 10.2464 5.73058 9.61347 6.36351C8.98054 6.99645 8.62496 7.85489 8.62496 8.75C8.62496 8.84946 8.66447 8.94484 8.73479 9.01517C8.80512 9.08549 8.9005 9.125 8.99996 9.125C9.09941 9.125 9.1948 9.08549 9.26512 9.01517C9.33545 8.94484 9.37496 8.84946 9.37496 8.75C9.37767 8.07188 9.64272 7.42111 10.1146 6.93405C10.5864 6.44699 11.2284 6.16143 11.9061 6.13719C12.5838 6.11295 13.2446 6.35192 13.75 6.80403C14.2555 7.25614 14.5663 7.8863 14.6175 8.5625L11.7806 10.6906L11.7675 10.7L1.57683 18.35C1.38807 18.4916 1.24859 18.6889 1.17814 18.9141C1.10769 19.1393 1.10984 19.381 1.18427 19.6049C1.2587 19.8288 1.40165 20.0236 1.59289 20.1618C1.78414 20.3 2.014 20.3746 2.24996 20.375H21.75C21.9861 20.375 22.2162 20.3007 22.4078 20.1626C22.5993 20.0246 22.7426 19.8298 22.8172 19.6058C22.8919 19.3818 22.8942 19.1399 22.8238 18.9146C22.7534 18.6892 22.6139 18.4917 22.425 18.35H22.4231ZM22.1034 19.3691C22.0801 19.4442 22.033 19.5098 21.9693 19.5559C21.9056 19.6021 21.8286 19.6263 21.75 19.625H2.24996C2.17125 19.625 2.09454 19.6002 2.03069 19.5542C1.96684 19.5082 1.91909 19.4433 1.8942 19.3686C1.86931 19.2939 1.86855 19.2133 1.89202 19.1382C1.91548 19.0631 1.96199 18.9972 2.02496 18.95L12 11.4688L21.9731 18.95C22.0375 18.9961 22.085 19.062 22.1086 19.1377C22.1321 19.2133 22.1303 19.2945 22.1034 19.3691Z" fill="#015F3F"/>
</svg>
