<svg width="30" height="21" viewBox="0 0 30 21" fill="none" xmlns="http://www.w3.org/2000/svg">
<path d="M28.8974 17.8L15.8337 8L19.2987 5.4C19.361 5.35356 19.4117 5.29322 19.4466 5.22379C19.4815 5.15435 19.4998 5.07773 19.4999 5C19.4999 3.80653 19.0258 2.66193 18.1819 1.81802C17.338 0.974106 16.1934 0.5 14.9999 0.5C13.8065 0.5 12.6619 0.974106 11.818 1.81802C10.9741 2.66193 10.4999 3.80653 10.4999 5C10.4999 5.13261 10.5526 5.25979 10.6464 5.35355C10.7402 5.44732 10.8673 5.5 10.9999 5.5C11.1326 5.5 11.2597 5.44732 11.3535 5.35355C11.4473 5.25979 11.4999 5.13261 11.4999 5C11.5036 4.09583 11.857 3.22815 12.4861 2.57873C13.1152 1.92932 13.9712 1.54857 14.8748 1.51625C15.7784 1.48393 16.6595 1.80256 17.3334 2.40537C18.0073 3.00818 18.4217 3.8484 18.4899 4.75L14.7074 7.5875L14.6899 7.6L1.10244 17.8C0.850755 17.9888 0.66479 18.2519 0.570858 18.5522C0.476926 18.8524 0.479782 19.1746 0.579022 19.4732C0.678261 19.7717 0.868861 20.0315 1.12386 20.2158C1.37885 20.4 1.68533 20.4995 1.99994 20.5H27.9999C28.3148 20.5 28.6216 20.4009 28.877 20.2169C29.1324 20.0328 29.3234 19.773 29.423 19.4743C29.5225 19.1757 29.5256 18.8533 29.4317 18.5527C29.3378 18.2522 29.1518 17.9889 28.8999 17.8H28.8974ZM28.4712 19.1588C28.4401 19.2589 28.3774 19.3464 28.2924 19.4079C28.2075 19.4694 28.1048 19.5017 27.9999 19.5H1.99994C1.895 19.5 1.79272 19.467 1.70759 19.4056C1.62246 19.3443 1.55879 19.2577 1.5256 19.1581C1.49242 19.0586 1.4914 18.9511 1.52269 18.8509C1.55398 18.7507 1.61599 18.663 1.69994 18.6L14.9999 8.625L28.2974 18.6C28.3833 18.6615 28.4467 18.7494 28.4781 18.8502C28.5094 18.9511 28.507 19.0594 28.4712 19.1588Z" fill="black"/>
</svg>
