<svg width="24" height="25" viewBox="0 0 24 25" fill="none" xmlns="http://www.w3.org/2000/svg">
<path d="M23.0163 10.34L13.0163 0.897507L13.01 0.891257C12.7327 0.639133 12.3711 0.499949 11.9963 0.501106C11.6215 0.502263 11.2607 0.643676 10.985 0.897507L0.99125 10.3338C0.836699 10.4742 0.713174 10.6453 0.628582 10.8363C0.543989 11.0272 0.500194 11.2337 0.5 11.4425V23C0.5 23.3978 0.658035 23.7794 0.93934 24.0607C1.22064 24.342 1.60218 24.5 2 24.5H22C22.3978 24.5 22.7794 24.342 23.0607 24.0607C23.342 23.7794 23.5 23.3978 23.5 23V11.4425C23.4999 11.2353 23.4569 11.0303 23.3736 10.8406C23.2903 10.6508 23.1687 10.4804 23.0163 10.34ZM22.5 23C22.5 23.1326 22.4473 23.2598 22.3536 23.3536C22.2598 23.4473 22.1326 23.5 22 23.5H2C1.86739 23.5 1.74021 23.4473 1.64645 23.3536C1.55268 23.2598 1.5 23.1326 1.5 23V11.4425C1.50079 11.3716 1.51632 11.3017 1.54558 11.2371C1.57485 11.1726 1.61722 11.1148 1.67 11.0675L11.6625 1.63126C11.7544 1.54834 11.8737 1.50244 11.9975 1.50244C12.1213 1.50244 12.2406 1.54834 12.3325 1.63126L22.3325 11.075C22.3847 11.1224 22.4263 11.1804 22.4545 11.245C22.4827 11.3096 22.4969 11.3795 22.4963 11.45L22.5 23Z" fill="black"/>
</svg>
