<svg version="1.1" id="Layer_1" xmlns="http://www.w3.org/2000/svg" xmlns:xlink="http://www.w3.org/1999/xlink" x="0px" y="0px" viewBox="0 0 100 100" style="enable-background:new 0 0 100 100;" xml:space="preserve" width="100"  height="100" >
<path d="M88.4,57c-2.4-1.9-5.7-1.9-8.1,0.1L65.9,69.4h-1.1V68c0-4-3.3-7.3-7.3-7.3c0,0-11.5,0-11.5,0c-0.5-0.1-1-0.2-1.5-0.3
	c-1.2-0.2-2.4-0.5-3.6-0.7c-1.5-0.3-3-0.6-4.5-0.9c-1.4-0.3-2.8-0.6-4.2-0.8c-1.3-0.3-2.6-0.6-4-0.7c-1.3-0.1-2.5,0-3.8,0.3
	c-0.9,0.2-1.7,0.6-2.5,1.1c-0.3,0.2-0.5,0.4-0.8,0.6c-1.9,1.5-3.1,3.7-3.3,6.1h-6.2c-0.6,0-1,0.4-1,1s0.4,1,1,1h7.1c0.6,0,1-0.4,1-1
	c0-2.2,1-4.2,2.6-5.6c1.7-1.4,3.9-1.9,6-1.5l17.2,3.4c0.1,0,0.1,0,0.2,0h11.6c2.9,0,5.3,2.4,5.3,5.3v1.3H43.7c-0.6,0-1,0.4-1,1
	s0.4,1,1,1h22.5c0.2,0,0.5-0.1,0.6-0.2l14.7-12.5c1.6-1.3,3.9-1.4,5.5-0.1c0.9,0.8,1.5,1.9,1.6,3.1c0.1,1.2-0.4,2.4-1.3,3.3
	l-24.1,24c-1,1-2.4,1.4-3.7,1.2L28,84.5c-0.1,0-0.1,0-0.2,0H11.7c-0.6,0-1,0.4-1,1s0.4,1,1,1h16l31.5,5.6c0.4,0.1,0.7,0.1,1.1,0.1
	c1.6,0,3.2-0.6,4.4-1.8l24.1-24c1.3-1.3,1.9-3,1.9-4.8C90.6,59.8,89.8,58.2,88.4,57z"></path>
<g>
	<path d="M52.5,57.8c-0.2,0-0.4-0.1-0.5-0.1h0c-0.4-0.1-5.6-2.2-11.4-6.4C35.3,47.4,28.5,41,26.4,32.1c-2.3-9.9,3.2-17.1,9.3-19.6
		c6.1-2.5,12.5-0.6,16.8,4.7c4.4-5.4,10.7-7.2,16.9-4.7c6.1,2.4,11.6,9.6,9.3,19.6c-2,8.9-8.8,15.3-14.2,19.2
		c-5.3,3.8-10.1,5.9-11.1,6.3C53,57.8,52.7,57.8,52.5,57.8z M52.5,55.8C52.5,55.8,52.5,55.8,52.5,55.8c0.5-0.2,5.3-2.2,10.7-6.1
		c5.1-3.7,11.5-9.8,13.4-18c2-8.8-2.8-15.2-8.1-17.3c-5.7-2.3-11.5-0.3-15.3,5.1l-0.8,1.2l-0.8-1.2c-3.8-5.4-9.6-7.4-15.2-5.1
		c-5.3,2.2-10.1,8.5-8.1,17.3c2,8.3,8.4,14.4,13.5,18l0,0C47,53.5,51.8,55.5,52.5,55.8z"></path>
</g>
</svg>