<svg xmlns="http://www.w3.org/2000/svg" xmlns:xlink="http://www.w3.org/1999/xlink" version="1.1" x="0px" y="0px" viewBox="0 0 100 100" style="enable-background:new 0 0 100 100;" xml:space="preserve" width="100"  height="100" ><style type="text/css">
	.st0{fill:none;stroke:#000000;stroke-width:2;stroke-linecap:round;stroke-linejoin:round;stroke-miterlimit:10;}
	.st1{fill:none;stroke:#000000;stroke-width:2;stroke-miterlimit:10;}
	.st2{fill:none;stroke:#000000;stroke-width:2;stroke-linecap:round;stroke-miterlimit:10;}
	.st3{fill:none;stroke:#000000;stroke-linecap:round;stroke-linejoin:round;stroke-miterlimit:10;}
	.st4{fill:none;stroke:#000000;stroke-width:1.3;stroke-linecap:round;stroke-linejoin:round;stroke-miterlimit:10;}
</style><path d="M62.1,33.7c0-0.1-0.1-0.2-0.1-0.3c0,0,0,0,0-0.1c-0.1-0.1-0.2-0.2-0.3-0.3c0,0,0,0,0,0c0,0,0,0,0,0c0,0-0.1,0-0.1,0  c-0.1,0-0.2-0.1-0.3-0.1c0,0-0.1,0-0.1,0c-0.1,0-0.2,0-0.3,0c0,0,0,0,0,0c-0.6,0.2-13.6,5.6-17.3,12.1c-2.6-1.1-5-1.6-5.2-1.6  c0,0,0,0,0,0c-0.1,0-0.2,0-0.3,0c0,0,0,0-0.1,0c-0.1,0-0.3,0.1-0.4,0.2c0,0,0,0,0,0c0,0,0,0,0,0c0,0,0,0,0,0  c-0.1,0.1-0.2,0.2-0.3,0.3c0,0,0,0.1,0,0.1c0,0.1-0.1,0.2-0.1,0.3c0,0,0,0,0,0c0,0.4-1,9.3,1.8,13.2v0c1.3,1.9,3.5,2.9,5.7,2.9  c1.2,0,2.4-0.3,3.5-1c1.4,0.6,3,1,4.6,1c4.1,0,8.2-2.1,10-5.6C65.9,48,62.3,34.3,62.1,33.7C62.1,33.7,62.1,33.7,62.1,33.7z M59,36.1  l-7.9,15.7c-0.2-0.7-0.5-1.4-1-2.1c-1-1.5-2.9-2.7-4.8-3.6C47.8,41.8,55.1,37.9,59,36.1z M48.5,50.8c0.8,1.1,1,2.4,0.8,3.7  c-0.2,1-0.6,1.8-1.3,2.5l-7.6-10.7C43.3,47.2,47,48.8,48.5,50.8z M43.6,58.5c-1.3-0.2-2.4-0.9-3.2-2c-1.4-2-1.7-6-1.6-9l7.5,10.7  C45.5,58.5,44.6,58.6,43.6,58.5z M60.7,54c-1.8,3.6-6.5,5.3-10.6,4.2l10.8-21.3C61.7,41.2,63,49.5,60.7,54z"></path><circle cx="49.7" cy="14.1" r="1.6"></circle><path d="M75.8,89c0.6,0,1-0.4,1-1V17.9c0-0.6-0.4-1-1-1H65c-0.6-2.2-2.7-3.8-5.3-3.8h-2.9c-0.5-3.4-3.4-6.1-7-6.1  c-3.6,0-6.5,2.6-7,6.1h-2.9c-2.6,0-4.8,1.6-5.3,3.8H23.3c-0.6,0-1,0.4-1,1V88c0,0.6,0.4,1,1,1H75.8z M67.9,69.7h-9c-0.6,0-1,0.4-1,1  v9H31.4V18.9h2.9v5.4c0,0.6,0.4,1,1,1h28.8c0.6,0,1-0.4,1-1v-5.4H68L67.9,69.7z M66.5,71.7l-6.6,6.6v-6.6H66.5z M36.3,18  c0-1.6,1.6-2.9,3.5-2.9h3.8c0.6,0,1-0.4,1-1c0-2.8,2.3-5.1,5.1-5.1s5.1,2.3,5.1,5.1c0,0.6,0.4,1,1,1h3.8c1.9,0,3.5,1.3,3.5,2.9v5.3  H36.3V18z M24.3,18.9h5.1v61.9c0,0.6,0.4,1,1,1h28.4c0.1,0,0.3,0,0.4-0.1c0.1-0.1,0.2-0.1,0.3-0.2l10-10c0.1-0.1,0.1-0.2,0.2-0.3  c0,0,0-0.1,0-0.1c0-0.1,0-0.2,0.1-0.3c0,0,0,0,0-0.1L70,18.9h4.8V87H24.3V18.9z"></path></svg>