<svg xmlns="http://www.w3.org/2000/svg" xmlns:xlink="http://www.w3.org/1999/xlink" version="1.1" x="0px" y="0px" viewBox="0 0 100 100" style="enable-background:new 0 0 100 100;" xml:space="preserve" width="100"  height="100" ><style type="text/css">
	.st0{fill:none;stroke:#000000;stroke-width:2;stroke-linecap:round;stroke-linejoin:round;stroke-miterlimit:10;}
</style><path d="M84.969,73.614c-2.312,0-4.246,1.567-4.85,3.689c-0.642-0.17-1.313-0.27-2.009-0.27c-4.333,0-7.858,3.525-7.858,7.858  c0,0.553,0.448,1,1,1s1-0.447,1-1c0-3.23,2.628-5.858,5.858-5.858c0.784,0,1.532,0.157,2.216,0.438  c0.103,0.075,0.217,0.127,0.344,0.159c1.949,0.953,3.298,2.95,3.298,5.261c0,0.553,0.448,1,1,1s1-0.447,1-1  c0-2.93-1.615-5.487-3.999-6.838c0.289-1.391,1.523-2.44,2.999-2.44c1.689,0,3.063,1.374,3.063,3.063c0,0.553,0.448,1,1,1  s1-0.447,1-1C90.032,75.885,87.761,73.614,84.969,73.614z"></path><path d="M44.133,67.75c-0.552,0-1,0.447-1,1s0.448,1,1,1h41.886c0.552,0,1-0.447,1-1s-0.448-1-1-1h-8.047V42.976l10.342,10.675  c0.196,0.202,0.457,0.304,0.718,0.304c0.25,0,0.501-0.094,0.696-0.282c0.396-0.384,0.407-1.017,0.022-1.414L77.972,40.101v-5.942  l10.342,10.675c0.384,0.396,1.017,0.407,1.414,0.021c0.396-0.384,0.407-1.017,0.022-1.414L77.972,31.283v-5.774l10.342,10.675  c0.196,0.202,0.457,0.304,0.718,0.304c0.25,0,0.501-0.094,0.696-0.282c0.396-0.384,0.407-1.017,0.022-1.414L77.972,22.634v-5.775  l10.342,10.675c0.196,0.202,0.457,0.304,0.718,0.304c0.25,0,0.501-0.094,0.696-0.282c0.396-0.384,0.407-1.017,0.022-1.414  L77.69,13.693c-0.002-0.002-0.005-0.003-0.007-0.005c-0.181-0.184-0.433-0.299-0.711-0.299s-0.53,0.115-0.711,0.299  c-0.002,0.002-0.005,0.003-0.007,0.005l-12.06,12.448c-0.384,0.397-0.374,1.03,0.022,1.414c0.397,0.385,1.029,0.375,1.414-0.022  l10.341-10.674v5.775L64.194,34.792c-0.384,0.397-0.374,1.03,0.022,1.414c0.397,0.385,1.029,0.375,1.414-0.022l10.341-10.674v5.775  L64.194,43.441c-0.384,0.397-0.374,1.03,0.022,1.414c0.194,0.188,0.445,0.282,0.696,0.282c0.261,0,0.522-0.102,0.718-0.304  l10.341-10.675v5.942L64.194,52.258c-0.384,0.397-0.374,1.03,0.022,1.414c0.397,0.385,1.029,0.375,1.414-0.022l10.341-10.674V67.75  H44.133z"></path><path d="M60.168,60.71H11.032c-0.552,0-1,0.447-1,1s0.448,1,1,1h49.136c0.552,0,1-0.447,1-1S60.721,60.71,60.168,60.71z"></path><path d="M89.032,88.044H47.048c-0.552,0-1,0.447-1,1s0.448,1,1,1h41.984c0.552,0,1-0.447,1-1S89.584,88.044,89.032,88.044z"></path><path d="M11.032,81.677h15.231c0.552,0,1-0.447,1-1s-0.448-1-1-1H11.032c-0.552,0-1,0.447-1,1S10.48,81.677,11.032,81.677z"></path><path d="M61.963,81.677c0.552,0,1-0.447,1-1s-0.448-1-1-1H50.188c-0.171-3.978-3.452-7.164-7.471-7.164  c-4.129,0-7.488,3.358-7.488,7.487c0,0.553,0.448,1,1,1s1-0.447,1-1c0-3.025,2.462-5.487,5.488-5.487  c2.917,0,5.302,2.289,5.471,5.164h-1.895c-0.552,0-1,0.447-1,1s0.448,1,1,1H61.963z"></path><path d="M11.032,90.043h30.129c0.552,0,1-0.447,1-1s-0.448-1-1-1H11.032c-0.552,0-1,0.447-1,1S10.48,90.043,11.032,90.043z"></path><path d="M26.864,34.964c4.404,0,7.987-3.58,7.987-7.981s-3.583-7.981-7.987-7.981s-7.987,3.58-7.987,7.981  S22.46,34.964,26.864,34.964z M26.864,21.001c3.301,0,5.987,2.684,5.987,5.981s-2.686,5.981-5.987,5.981s-5.987-2.684-5.987-5.981  S23.562,21.001,26.864,21.001z"></path><path d="M27.864,14.389v-3.346c0-0.553-0.448-1-1-1s-1,0.447-1,1v3.346c0,0.553,0.448,1,1,1S27.864,14.942,27.864,14.389z"></path><path d="M31.989,16.478c0.383,0,0.748-0.221,0.914-0.593l1.362-3.057c0.225-0.505-0.002-1.096-0.507-1.32  c-0.502-0.228-1.095,0.002-1.32,0.506l-1.362,3.057c-0.225,0.505,0.002,1.096,0.507,1.32C31.715,16.451,31.853,16.478,31.989,16.478  z"></path><path d="M38.049,15.575l-2.488,2.238c-0.411,0.369-0.444,1.001-0.074,1.412c0.197,0.22,0.47,0.331,0.744,0.331  c0.238,0,0.477-0.085,0.668-0.257l2.488-2.238c0.411-0.369,0.444-1.001,0.074-1.412C39.092,15.238,38.46,15.206,38.049,15.575z"></path><path d="M41.725,21.106l-3.184,1.034c-0.525,0.171-0.812,0.734-0.642,1.26c0.137,0.423,0.529,0.691,0.951,0.691  c0.102,0,0.206-0.016,0.309-0.049l3.184-1.034c0.525-0.171,0.812-0.734,0.642-1.26C42.815,21.224,42.255,20.936,41.725,21.106z"></path><path d="M42.832,27.655l-3.33-0.35c-0.556-0.069-1.042,0.341-1.099,0.89c-0.058,0.55,0.341,1.041,0.89,1.099l3.33,0.35  c0.036,0.004,0.071,0.006,0.105,0.006c0.505,0,0.939-0.382,0.994-0.896C43.78,28.204,43.381,27.712,42.832,27.655z"></path><path d="M41.544,35.452c0.276-0.479,0.112-1.09-0.367-1.366l-2.9-1.673c-0.479-0.276-1.09-0.111-1.366,0.366  c-0.276,0.479-0.112,1.09,0.367,1.366l2.9,1.673c0.157,0.091,0.329,0.134,0.499,0.134C41.023,35.952,41.359,35.772,41.544,35.452z"></path><path d="M33.684,36.362c-0.447,0.324-0.546,0.95-0.221,1.396l1.968,2.707c0.196,0.27,0.501,0.412,0.81,0.412  c0.204,0,0.41-0.062,0.587-0.191c0.447-0.324,0.546-0.95,0.221-1.396l-1.968-2.707C34.756,36.134,34.13,36.038,33.684,36.362z"></path><path d="M30.179,43.573c0.069,0,0.139-0.007,0.209-0.021c0.54-0.115,0.885-0.646,0.77-1.187l-0.696-3.272  c-0.115-0.54-0.646-0.885-1.186-0.771c-0.54,0.115-0.885,0.646-0.77,1.187l0.696,3.272C29.302,43.251,29.717,43.573,30.179,43.573z"></path><path d="M23.548,43.573c0.462,0,0.877-0.322,0.977-0.792l0.696-3.272c0.115-0.54-0.229-1.071-0.77-1.187  c-0.539-0.111-1.071,0.231-1.186,0.771l-0.696,3.272c-0.115,0.54,0.229,1.071,0.77,1.187C23.409,43.566,23.479,43.573,23.548,43.573  z"></path><path d="M16.679,39.29c-0.325,0.446-0.226,1.072,0.221,1.396c0.177,0.129,0.383,0.191,0.587,0.191c0.309,0,0.614-0.143,0.81-0.412  l1.968-2.707c0.325-0.446,0.226-1.072-0.221-1.396c-0.446-0.323-1.072-0.227-1.396,0.221L16.679,39.29z"></path><path d="M13.051,35.952c0.169,0,0.341-0.043,0.499-0.134l2.899-1.673c0.479-0.276,0.643-0.888,0.367-1.366  c-0.276-0.478-0.888-0.643-1.366-0.366l-2.899,1.673c-0.479,0.276-0.643,0.888-0.367,1.366  C12.369,35.772,12.705,35.952,13.051,35.952z"></path><path d="M10.005,28.753c0.054,0.514,0.488,0.896,0.994,0.896c0.035,0,0.07-0.002,0.105-0.006l3.33-0.35  c0.549-0.058,0.948-0.549,0.89-1.099c-0.058-0.549-0.543-0.949-1.099-0.89l-3.33,0.35C10.346,27.712,9.948,28.204,10.005,28.753z"></path><path d="M10.742,21.749c-0.17,0.525,0.117,1.089,0.642,1.26l3.184,1.034c0.103,0.033,0.207,0.049,0.309,0.049  c0.422,0,0.814-0.269,0.951-0.691c0.17-0.525-0.117-1.089-0.642-1.26l-3.184-1.034C11.474,20.936,10.913,21.224,10.742,21.749z"></path><path d="M15.679,15.575c-0.412-0.369-1.042-0.337-1.413,0.074c-0.369,0.411-0.336,1.043,0.075,1.412l2.488,2.238  c0.191,0.172,0.43,0.257,0.668,0.257c0.274,0,0.546-0.111,0.744-0.331c0.369-0.411,0.336-1.043-0.075-1.412L15.679,15.575z"></path><path d="M21.738,16.478c0.136,0,0.274-0.027,0.406-0.087c0.505-0.225,0.731-0.815,0.507-1.32l-1.362-3.057  c-0.226-0.505-0.818-0.734-1.32-0.506c-0.505,0.225-0.731,0.815-0.507,1.32l1.362,3.057C20.99,16.257,21.355,16.478,21.738,16.478z"></path></svg>