<svg width="24" height="25" viewBox="0 0 24 25" fill="none" xmlns="http://www.w3.org/2000/svg">
<path d="M19.5 5C19.5 5.13261 19.4473 5.25979 19.3536 5.35355C19.2598 5.44732 19.1326 5.5 19 5.5H16C15.8674 5.5 15.7402 5.44732 15.6464 5.35355C15.5527 5.25979 15.5 5.13261 15.5 5C15.5 4.86739 15.5527 4.74021 15.6464 4.64645C15.7402 4.55268 15.8674 4.5 16 4.5H19C19.1326 4.5 19.2598 4.55268 19.3536 4.64645C19.4473 4.74021 19.5 4.86739 19.5 5ZM19 8.5H16C15.8674 8.5 15.7402 8.55268 15.6464 8.64645C15.5527 8.74021 15.5 8.86739 15.5 9C15.5 9.13261 15.5527 9.25979 15.6464 9.35355C15.7402 9.44732 15.8674 9.5 16 9.5H19C19.1326 9.5 19.2598 9.44732 19.3536 9.35355C19.4473 9.25979 19.5 9.13261 19.5 9C19.5 8.86739 19.4473 8.74021 19.3536 8.64645C19.2598 8.55268 19.1326 8.5 19 8.5ZM5 5.5H8C8.13261 5.5 8.25979 5.44732 8.35355 5.35355C8.44732 5.25979 8.5 5.13261 8.5 5C8.5 4.86739 8.44732 4.74021 8.35355 4.64645C8.25979 4.55268 8.13261 4.5 8 4.5H5C4.86739 4.5 4.74021 4.55268 4.64645 4.64645C4.55268 4.74021 4.5 4.86739 4.5 5C4.5 5.13261 4.55268 5.25979 4.64645 5.35355C4.74021 5.44732 4.86739 5.5 5 5.5ZM8 8.5H5C4.86739 8.5 4.74021 8.55268 4.64645 8.64645C4.55268 8.74021 4.5 8.86739 4.5 9C4.5 9.13261 4.55268 9.25979 4.64645 9.35355C4.74021 9.44732 4.86739 9.5 5 9.5H8C8.13261 9.5 8.25979 9.44732 8.35355 9.35355C8.44732 9.25979 8.5 9.13261 8.5 9C8.5 8.86739 8.44732 8.74021 8.35355 8.64645C8.25979 8.55268 8.13261 8.5 8 8.5ZM23.5 2V24C23.5 24.1326 23.4473 24.2598 23.3536 24.3536C23.2598 24.4473 23.1326 24.5 23 24.5C22.8674 24.5 22.7402 24.4473 22.6464 24.3536C22.5527 24.2598 22.5 24.1326 22.5 24V21.5H12.5V24C12.5 24.1326 12.4473 24.2598 12.3536 24.3536C12.2598 24.4473 12.1326 24.5 12 24.5C11.8674 24.5 11.7402 24.4473 11.6464 24.3536C11.5527 24.2598 11.5 24.1326 11.5 24V21.5H1.5V24C1.5 24.1326 1.44732 24.2598 1.35355 24.3536C1.25979 24.4473 1.13261 24.5 1 24.5C0.867392 24.5 0.740215 24.4473 0.646447 24.3536C0.552679 24.2598 0.5 24.1326 0.5 24V2C0.5 1.60218 0.658035 1.22064 0.93934 0.93934C1.22064 0.658035 1.60218 0.5 2 0.5H22C22.3978 0.5 22.7794 0.658035 23.0607 0.93934C23.342 1.22064 23.5 1.60218 23.5 2ZM11.5 20.5V1.5H2C1.86739 1.5 1.74021 1.55268 1.64645 1.64645C1.55268 1.74021 1.5 1.86739 1.5 2V20.5H11.5ZM12.5 20.5H22.5V2C22.5 1.86739 22.4473 1.74021 22.3536 1.64645C22.2598 1.55268 22.1326 1.5 22 1.5H12.5V20.5Z" fill="black"/>
</svg>
