<svg width="24" height="24" viewBox="0 0 24 24" fill="none" xmlns="http://www.w3.org/2000/svg">
<path d="M21.0459 7.14375L16.8563 2.95406C16.7517 2.84918 16.6275 2.76597 16.4908 2.70919C16.3541 2.65241 16.2074 2.62318 16.0594 2.62318C15.9113 2.62318 15.7647 2.65241 15.628 2.70919C15.4912 2.76597 15.367 2.84918 15.2625 2.95406L3.70406 14.5153C3.49337 14.7262 3.37501 15.0122 3.375 15.3103V19.5C3.375 19.7984 3.49353 20.0845 3.7045 20.2955C3.91548 20.5065 4.20163 20.625 4.5 20.625H20.25C20.3495 20.625 20.4448 20.5855 20.5152 20.5152C20.5855 20.4448 20.625 20.3495 20.625 20.25C20.625 20.1505 20.5855 20.0552 20.5152 19.9848C20.4448 19.9145 20.3495 19.875 20.25 19.875H9.90563L21.0459 8.73469C21.2569 8.52371 21.3754 8.23758 21.3754 7.93922C21.3754 7.64086 21.2569 7.35473 21.0459 7.14375ZM6.90563 17.625L15.375 9.15563L17.4703 11.25L9 19.7194L6.90563 17.625ZM6.375 17.0944L4.28063 15L12.75 6.53063L14.8453 8.625L6.375 17.0944ZM4.125 19.5V15.9056L6.10969 17.8903L8.09438 19.875H4.5C4.40054 19.875 4.30516 19.8355 4.23484 19.7652C4.16451 19.6948 4.125 19.5995 4.125 19.5ZM20.5153 8.20406L18 10.7194L13.2806 6L15.7959 3.48469C15.8308 3.44982 15.8721 3.42216 15.9176 3.40329C15.9632 3.38442 16.012 3.37471 16.0613 3.37471C16.1105 3.37471 16.1593 3.38442 16.2049 3.40329C16.2504 3.42216 16.2917 3.44982 16.3266 3.48469L20.5153 7.67438C20.5854 7.74468 20.6248 7.83992 20.6248 7.93922C20.6248 8.03852 20.5854 8.13376 20.5153 8.20406Z" fill="black"/>
</svg>
