<svg width="26" height="26" viewBox="0 0 26 26" fill="none" xmlns="http://www.w3.org/2000/svg">
<path d="M25.0897 13.1522C25.0897 13.55 24.9317 13.9316 24.6504 14.2129C24.3691 14.4942 23.9875 14.6522 23.5897 14.6522H14.0897V24.1522C14.0897 24.55 13.9317 24.9316 13.6504 25.2129C13.3691 25.4942 12.9875 25.6522 12.5897 25.6522C12.1919 25.6522 11.8104 25.4942 11.5291 25.2129C11.2478 24.9316 11.0897 24.55 11.0897 24.1522V14.6522H1.58972C1.1919 14.6522 0.810366 14.4942 0.529062 14.2129C0.247757 13.9316 0.0897217 13.55 0.0897217 13.1522C0.0897217 12.7544 0.247757 12.3729 0.529062 12.0916C0.810366 11.8103 1.1919 11.6522 1.58972 11.6522H11.0897V2.15222C11.0897 1.7544 11.2478 1.37287 11.5291 1.09156C11.8104 0.810257 12.1919 0.652222 12.5897 0.652222C12.9875 0.652222 13.3691 0.810257 13.6504 1.09156C13.9317 1.37287 14.0897 1.7544 14.0897 2.15222V11.6522H23.5897C23.9875 11.6522 24.3691 11.8103 24.6504 12.0916C24.9317 12.3729 25.0897 12.7544 25.0897 13.1522Z" fill="#F4EDCA"/>
</svg>
