<svg width="24" height="24" viewBox="0 0 24 24" fill="none" xmlns="http://www.w3.org/2000/svg">
<path d="M23.5 12C23.5 12.1326 23.4473 12.2598 23.3536 12.3536C23.2598 12.4473 23.1326 12.5 23 12.5H12.5V23C12.5 23.1326 12.4473 23.2598 12.3536 23.3536C12.2598 23.4473 12.1326 23.5 12 23.5C11.8674 23.5 11.7402 23.4473 11.6464 23.3536C11.5527 23.2598 11.5 23.1326 11.5 23V12.5H1C0.867392 12.5 0.740215 12.4473 0.646447 12.3536C0.552679 12.2598 0.5 12.1326 0.5 12C0.5 11.8674 0.552679 11.7402 0.646447 11.6464C0.740215 11.5527 0.867392 11.5 1 11.5H11.5V1C11.5 0.867392 11.5527 0.740215 11.6464 0.646447C11.7402 0.552679 11.8674 0.5 12 0.5C12.1326 0.5 12.2598 0.552679 12.3536 0.646447C12.4473 0.740215 12.5 0.867392 12.5 1V11.5H23C23.1326 11.5 23.2598 11.5527 23.3536 11.6464C23.4473 11.7402 23.5 11.8674 23.5 12Z" fill="black"/>
</svg>
