<svg version="1.1" id="Layer_1" xmlns="http://www.w3.org/2000/svg" xmlns:xlink="http://www.w3.org/1999/xlink" x="0px" y="0px" viewBox="0 0 100 100" style="enable-background:new 0 0 100 100;" xml:space="preserve" width="100"  height="100" >
<path d="M20,27.8h4l2.9,60.9c0,0.5,0.5,1,1,1h44.2c0.5,0,1-0.4,1-1L76,27.8h4c0.6,0,1-0.4,1-1v-10c0-0.6-0.4-1-1-1H64.2v-5.1
	c0-0.6-0.4-1-1-1H36.8c-0.6,0-1,0.4-1,1v5.1H20c-0.6,0-1,0.4-1,1v10C19,27.4,19.4,27.8,20,27.8z M71.2,87.7H28.8L26,27.8H74
	L71.2,87.7z M37.8,11.7h24.5v4.1H37.8V11.7z M21,17.8h58v8H21C21,25.8,21,17.8,21,17.8z"></path>
<g>
	<path d="M58.9,52.6c-0.3-0.5-0.9-0.6-1.4-0.4c-0.5,0.3-0.6,0.9-0.4,1.4l3.1,5.3c0.4,0.7,0.4,1.6,0,2.3c-0.4,0.7-1.2,1.2-2,1.2h-3.8
		l1-1c0.4-0.4,0.4-1,0-1.4s-1-0.4-1.4,0l-2.7,2.7C51.1,63,51,63.2,51,63.5s0.1,0.5,0.3,0.7l2.7,2.7c0.2,0.2,0.5,0.3,0.7,0.3
		s0.5-0.1,0.7-0.3c0.4-0.4,0.4-1,0-1.4l-1-1h3.8c1.6,0,3-0.8,3.8-2.2s0.8-3,0-4.3L58.9,52.6z"></path>
	<path d="M47.7,62.5h-5.9c-0.8,0-1.6-0.4-2-1.2c-0.4-0.7-0.4-1.6,0-2.3l2.4-4.2l0.4,1.3c0.1,0.4,0.5,0.7,1,0.7c0.1,0,0.2,0,0.3,0
		c0.5-0.1,0.8-0.7,0.7-1.2l-1-3.7c-0.1-0.3-0.2-0.5-0.5-0.6c-0.2-0.1-0.5-0.2-0.8-0.1l-3.7,1c-0.5,0.1-0.8,0.7-0.7,1.2
		c0.1,0.5,0.7,0.9,1.2,0.7l1.3-0.3L38.1,58c-0.8,1.4-0.8,3,0,4.3c0.8,1.4,2.2,2.2,3.8,2.2h5.9c0.6,0,1-0.4,1-1S48.2,62.5,47.7,62.5z
		"></path>
	<path d="M50.8,47.6c-0.1,0.5,0.2,1.1,0.7,1.2l3.7,1c0.1,0,0.2,0,0.3,0c0.4,0,0.8-0.3,1-0.7l1-3.7c0.1-0.5-0.2-1.1-0.7-1.2
		c-0.5-0.1-1.1,0.2-1.2,0.7l-0.3,1.2l-1.4-2.4c-0.8-1.4-2.2-2.2-3.7-2.2c0,0,0,0,0,0c-1.6,0-3,0.8-3.7,2.2L43.9,48
		c-0.3,0.5-0.1,1.1,0.4,1.4c0.5,0.3,1.1,0.1,1.4-0.4l2.4-4.1c0.4-0.7,1.2-1.2,2-1.2c0.8,0,1.6,0.4,2,1.2l1.4,2.5L52,46.9
		C51.5,46.8,50.9,47.1,50.8,47.6z"></path>
</g>
</svg>