<svg width="32" height="32" viewBox="0 0 32 32" fill="none" xmlns="http://www.w3.org/2000/svg">
<path d="M32 0.695652V7.65217C32 7.83667 31.9267 8.01362 31.7962 8.14408C31.6658 8.27454 31.4888 8.34783 31.3043 8.34783C31.1199 8.34783 30.9429 8.27454 30.8124 8.14408C30.682 8.01362 30.6087 7.83667 30.6087 7.65217V1.3913H24.3478C24.1633 1.3913 23.9864 1.31801 23.8559 1.18755C23.7255 1.05709 23.6522 0.880151 23.6522 0.695652C23.6522 0.511154 23.7255 0.334212 23.8559 0.203752C23.9864 0.0732919 24.1633 0 24.3478 0H31.3043C31.4888 0 31.6658 0.0732919 31.7962 0.203752C31.9267 0.334212 32 0.511154 32 0.695652ZM7.65217 30.6087H1.3913V24.3478C1.3913 24.1633 1.31801 23.9864 1.18755 23.8559C1.05709 23.7255 0.880151 23.6522 0.695652 23.6522C0.511154 23.6522 0.334212 23.7255 0.203752 23.8559C0.0732919 23.9864 0 24.1633 0 24.3478V31.3043C0 31.4888 0.0732919 31.6658 0.203752 31.7962C0.334212 31.9267 0.511154 32 0.695652 32H7.65217C7.83667 32 8.01362 31.9267 8.14408 31.7962C8.27454 31.6658 8.34783 31.4888 8.34783 31.3043C8.34783 31.1199 8.27454 30.9429 8.14408 30.8124C8.01362 30.682 7.83667 30.6087 7.65217 30.6087ZM31.3043 23.6522C31.1199 23.6522 30.9429 23.7255 30.8124 23.8559C30.682 23.9864 30.6087 24.1633 30.6087 24.3478V30.6087H24.3478C24.1633 30.6087 23.9864 30.682 23.8559 30.8124C23.7255 30.9429 23.6522 31.1199 23.6522 31.3043C23.6522 31.4888 23.7255 31.6658 23.8559 31.7962C23.9864 31.9267 24.1633 32 24.3478 32H31.3043C31.4888 32 31.6658 31.9267 31.7962 31.7962C31.9267 31.6658 32 31.4888 32 31.3043V24.3478C32 24.1633 31.9267 23.9864 31.7962 23.8559C31.6658 23.7255 31.4888 23.6522 31.3043 23.6522ZM0.695652 8.34783C0.880151 8.34783 1.05709 8.27454 1.18755 8.14408C1.31801 8.01362 1.3913 7.83667 1.3913 7.65217V1.3913H7.65217C7.83667 1.3913 8.01362 1.31801 8.14408 1.18755C8.27454 1.05709 8.34783 0.880151 8.34783 0.695652C8.34783 0.511154 8.27454 0.334212 8.14408 0.203752C8.01362 0.0732919 7.83667 0 7.65217 0H0.695652C0.511154 0 0.334212 0.0732919 0.203752 0.203752C0.0732919 0.334212 0 0.511154 0 0.695652V7.65217C0 7.83667 0.0732919 8.01362 0.203752 8.14408C0.334212 8.27454 0.511154 8.34783 0.695652 8.34783ZM22.9565 25.0435H9.04348C8.48998 25.0435 7.95916 24.8236 7.56778 24.4322C7.1764 24.0408 6.95652 23.51 6.95652 22.9565V9.04348C6.95652 8.48998 7.1764 7.95916 7.56778 7.56778C7.95916 7.1764 8.48998 6.95652 9.04348 6.95652H22.9565C23.51 6.95652 24.0408 7.1764 24.4322 7.56778C24.8236 7.95916 25.0435 8.48998 25.0435 9.04348V22.9565C25.0435 23.51 24.8236 24.0408 24.4322 24.4322C24.0408 24.8236 23.51 25.0435 22.9565 25.0435ZM23.6522 9.04348C23.6522 8.85898 23.5789 8.68204 23.4484 8.55158C23.318 8.42112 23.141 8.34783 22.9565 8.34783H9.04348C8.85898 8.34783 8.68204 8.42112 8.55158 8.55158C8.42112 8.68204 8.34783 8.85898 8.34783 9.04348V22.9565C8.34783 23.141 8.42112 23.318 8.55158 23.4484C8.68204 23.5789 8.85898 23.6522 9.04348 23.6522H22.9565C23.141 23.6522 23.318 23.5789 23.4484 23.4484C23.5789 23.318 23.6522 23.141 23.6522 22.9565V9.04348Z" fill="black"/>
</svg>
