<svg width="33" height="33" viewBox="0 0 33 33" fill="none" xmlns="http://www.w3.org/2000/svg">
<path d="M28.4385 5.75623V10.7562C28.4385 11.0214 28.3331 11.2758 28.1456 11.4633C27.958 11.6509 27.7037 11.7562 27.4385 11.7562C27.1733 11.7562 26.9189 11.6509 26.7314 11.4633C26.5438 11.2758 26.4385 11.0214 26.4385 10.7562V6.75623H22.4385C22.1733 6.75623 21.9189 6.65087 21.7314 6.46333C21.5438 6.2758 21.4385 6.02144 21.4385 5.75623C21.4385 5.49101 21.5438 5.23666 21.7314 5.04912C21.9189 4.86158 22.1733 4.75623 22.4385 4.75623H27.4385C27.7037 4.75623 27.958 4.86158 28.1456 5.04912C28.3331 5.23666 28.4385 5.49101 28.4385 5.75623ZM10.4385 26.7562H6.43848V22.7562C6.43848 22.491 6.33312 22.2367 6.14558 22.0491C5.95805 21.8616 5.70369 21.7562 5.43848 21.7562C5.17326 21.7562 4.91891 21.8616 4.73137 22.0491C4.54383 22.2367 4.43848 22.491 4.43848 22.7562V27.7562C4.43848 28.0214 4.54383 28.2758 4.73137 28.4633C4.91891 28.6509 5.17326 28.7562 5.43848 28.7562H10.4385C10.7037 28.7562 10.958 28.6509 11.1456 28.4633C11.3331 28.2758 11.4385 28.0214 11.4385 27.7562C11.4385 27.491 11.3331 27.2367 11.1456 27.0491C10.958 26.8616 10.7037 26.7562 10.4385 26.7562ZM27.4385 21.7562C27.1733 21.7562 26.9189 21.8616 26.7314 22.0491C26.5438 22.2367 26.4385 22.491 26.4385 22.7562V26.7562H22.4385C22.1733 26.7562 21.9189 26.8616 21.7314 27.0491C21.5438 27.2367 21.4385 27.491 21.4385 27.7562C21.4385 28.0214 21.5438 28.2758 21.7314 28.4633C21.9189 28.6509 22.1733 28.7562 22.4385 28.7562H27.4385C27.7037 28.7562 27.958 28.6509 28.1456 28.4633C28.3331 28.2758 28.4385 28.0214 28.4385 27.7562V22.7562C28.4385 22.491 28.3331 22.2367 28.1456 22.0491C27.958 21.8616 27.7037 21.7562 27.4385 21.7562ZM5.43848 11.7562C5.70369 11.7562 5.95805 11.6509 6.14558 11.4633C6.33312 11.2758 6.43848 11.0214 6.43848 10.7562V6.75623H10.4385C10.7037 6.75623 10.958 6.65087 11.1456 6.46333C11.3331 6.2758 11.4385 6.02144 11.4385 5.75623C11.4385 5.49101 11.3331 5.23666 11.1456 5.04912C10.958 4.86158 10.7037 4.75623 10.4385 4.75623H5.43848C5.17326 4.75623 4.91891 4.86158 4.73137 5.04912C4.54383 5.23666 4.43848 5.49101 4.43848 5.75623V10.7562C4.43848 11.0214 4.54383 11.2758 4.73137 11.4633C4.91891 11.6509 5.17326 11.7562 5.43848 11.7562ZM23.4385 21.7562V11.7562C23.4385 11.2258 23.2278 10.7171 22.8527 10.342C22.4776 9.96694 21.9689 9.75623 21.4385 9.75623H11.4385C10.908 9.75623 10.3993 9.96694 10.0243 10.342C9.64919 10.7171 9.43848 11.2258 9.43848 11.7562V21.7562C9.43848 22.2867 9.64919 22.7954 10.0243 23.1704C10.3993 23.5455 10.908 23.7562 11.4385 23.7562H21.4385C21.9689 23.7562 22.4776 23.5455 22.8527 23.1704C23.2278 22.7954 23.4385 22.2867 23.4385 21.7562Z" fill="black"/>
</svg>
