<svg width="24" height="26" viewBox="0 0 24 26" fill="none" xmlns="http://www.w3.org/2000/svg">
<path d="M23.6954 15.295L22.6971 13.6723V12.3259L23.6946 10.7052C23.842 10.4659 23.9392 10.1944 23.9792 9.90996C24.0192 9.62552 24.0011 9.33503 23.9261 9.059C23.6925 8.22565 23.3847 7.41886 23.0069 6.65003C22.8809 6.39719 22.7047 6.17776 22.491 6.00755C22.2772 5.83734 22.0313 5.72059 21.7709 5.66571L20.004 5.28291L19.1249 4.33064L18.7715 2.41667C18.7209 2.13423 18.6129 1.8675 18.4555 1.63579C18.298 1.40408 18.095 1.21318 17.861 1.07689C17.1519 0.668584 16.408 0.33547 15.6397 0.0821904C15.3851 -0.000314657 15.1167 -0.0206994 14.854 0.022501C14.5912 0.0657014 14.3405 0.171414 14.12 0.332044L12.6228 1.41348H11.3799L9.88191 0.332044C9.66179 0.171129 9.41141 0.0652333 9.14887 0.0220213C8.88633 -0.0211907 8.6182 -0.000638544 8.3639 0.0821904C7.59456 0.335229 6.84975 0.668678 6.13998 1.07783C5.90622 1.21389 5.70339 1.40463 5.5462 1.63622C5.38902 1.86781 5.28143 2.13441 5.23126 2.41667L4.87787 4.33064L3.99875 5.28291L2.23006 5.66571C1.9696 5.7204 1.72364 5.83718 1.51001 6.0076C1.29638 6.17801 1.12044 6.39778 0.994936 6.65098C0.61766 7.41938 0.309842 8.22549 0.0757744 9.05805C-0.0005743 9.33369 -0.0194868 9.62425 0.0204015 9.90877C0.0602898 10.1933 0.157984 10.4647 0.306436 10.7033L1.30568 12.3259V13.6723L0.305565 15.2959C0.157412 15.5345 0.0599586 15.8058 0.0202237 16.0901C-0.0195113 16.3744 -0.000538878 16.6648 0.0757744 16.9402C0.309534 17.7723 0.617367 18.5778 0.994936 19.3454C1.12017 19.5992 1.29611 19.8195 1.50994 19.9903C1.72376 20.1611 1.97008 20.278 2.23093 20.3326L3.99875 20.7154L4.87787 21.6676L5.23126 23.5807C5.28088 23.8634 5.38823 24.1305 5.54546 24.3625C5.70269 24.5945 5.90582 24.7854 6.13998 24.9214C6.8491 25.3301 7.59335 25.663 8.36216 25.9151C8.6165 25.9997 8.88513 26.0212 9.14819 25.9781C9.41124 25.935 9.662 25.8284 9.88191 25.6662L11.3799 24.5848H12.6228L14.12 25.6662C14.417 25.8825 14.7665 25.9986 15.1244 26C15.2991 25.9997 15.4727 25.9715 15.6397 25.9161C16.4078 25.663 17.1514 25.3299 17.8602 24.9214C18.0945 24.786 18.2979 24.5954 18.4555 24.3638C18.613 24.1321 18.7207 23.8652 18.7706 23.5826L19.124 21.6676L20.004 20.7154L21.7718 20.3326C22.0323 20.2774 22.2783 20.1603 22.4921 19.9898C22.7058 19.8193 22.8819 19.5995 23.0078 19.3464C23.385 18.5784 23.6926 17.7726 23.9261 16.9402C24.0011 16.6644 24.0193 16.3741 23.9794 16.0898C23.9396 15.8056 23.8426 15.5342 23.6954 15.295ZM12.0011 18.7921C10.9433 18.7921 9.90939 18.4523 9.02994 17.8158C8.15049 17.1793 7.46505 16.2746 7.06028 15.2161C6.65552 14.1576 6.54961 12.9928 6.75596 11.8691C6.96231 10.7454 7.47164 9.71325 8.21955 8.90311C8.96746 8.09297 9.92036 7.54126 10.9577 7.31774C11.9951 7.09422 13.0704 7.20894 14.0476 7.64739C15.0248 8.08583 15.86 8.82831 16.4476 9.78094C17.0353 10.7336 17.3489 11.8535 17.3489 12.9993C17.3489 14.5356 16.7854 16.009 15.7825 17.0954C14.7796 18.1818 13.4194 18.7921 12.0011 18.7921Z" fill="black"/>
</svg>
