<svg width="24" height="30" viewBox="0 0 24 30" fill="none" xmlns="http://www.w3.org/2000/svg">
<path d="M23.9765 24.6448C23.977 25.4312 23.8157 26.2081 23.5042 26.9202C23.1926 27.6323 22.7384 28.262 22.1739 28.7646C21.6094 29.2672 20.9485 29.6303 20.2381 29.8281C19.5278 30.0258 18.7855 30.0534 18.0641 29.9087C17.3426 29.7641 16.6598 29.4509 16.0642 28.9914C15.4686 28.5318 14.9748 27.9373 14.6181 27.25C14.2613 26.5627 14.0503 25.7996 14 25.015C13.9497 24.2304 14.0615 23.4436 14.3273 22.7105L8.57184 18.7458C7.87878 19.5084 6.98923 20.0322 6.01693 20.2502C5.04462 20.4682 4.03373 20.3705 3.11349 19.9697C2.19325 19.5689 1.40546 18.8831 0.850853 18C0.296241 17.1169 0 16.0766 0 15.0122C0 13.9477 0.296241 12.9075 0.850853 12.0244C1.40546 11.1413 2.19325 10.4555 3.11349 10.0547C4.03373 9.65383 5.04462 9.55618 6.01693 9.77419C6.98923 9.99219 7.87878 10.516 8.57184 11.2785L14.3273 7.31384C13.8766 6.07471 13.8715 4.7004 14.3128 3.45743C14.7542 2.21446 15.6106 1.19142 16.716 0.586729C17.8214 -0.0179657 19.097 -0.161224 20.2953 0.184737C21.4937 0.530699 22.5295 1.34122 23.2017 2.45912C23.874 3.57701 24.1349 4.92261 23.9338 6.23494C23.7327 7.54727 23.0839 8.7328 22.1133 9.56162C21.1427 10.3904 19.9195 10.8035 18.6808 10.7206C17.4421 10.6378 16.2763 10.0649 15.4094 9.11319L9.65399 13.0778C10.106 14.3219 10.106 15.7024 9.65399 16.9465L15.4094 20.9112C16.1021 20.1486 16.9913 19.6248 17.9633 19.4067C18.9354 19.1887 19.946 19.2864 20.866 19.6873C21.7859 20.0883 22.5733 20.7742 23.1274 21.6573C23.6815 22.5404 23.9771 23.5806 23.9765 24.6448Z" fill="black"/>
</svg>
