<svg width="28" height="28" viewBox="0 0 28 28" fill="none" xmlns="http://www.w3.org/2000/svg">
<circle cx="14" cy="14" r="13" fill="#66CB9F" stroke="white" stroke-width="2"/>
<rect width="16" height="16" transform="translate(6 6)" fill="#66CB9F"/>
<path d="M9.61224 21.4427C9.2258 21.6413 8.78823 21.2942 8.86603 20.8508L9.69576 16.1213L6.17343 12.7646C5.84425 12.4509 6.01465 11.8774 6.45564 11.8147L11.3541 11.1188L13.5382 6.7923C13.735 6.40257 14.2679 6.40257 14.4647 6.7923L16.6488 11.1188L21.5473 11.8147C21.9883 11.8774 22.1587 12.4509 21.8295 12.7646L18.3072 16.1213L19.1369 20.8508C19.2147 21.2942 18.7771 21.6413 18.3907 21.4427L14.0015 19.1868L9.61224 21.4427Z" fill="white"/>
</svg>
