<svg width="24" height="24" viewBox="0 0 24 24" fill="none" xmlns="http://www.w3.org/2000/svg">
<g clip-path="url(#clip0_228_1467)">
<mask id="mask0_228_1467" style="mask-type:alpha" maskUnits="userSpaceOnUse" x="0" y="0" width="25" height="23">
<path d="M23.2244 8.0704L16.0296 7.02476L12.8134 0.50441C12.7256 0.325886 12.581 0.181367 12.4025 0.0935227C11.9548 -0.127506 11.4107 0.0566846 11.1868 0.50441L7.9706 7.02476L0.775824 8.0704C0.577465 8.09873 0.396107 8.19225 0.257256 8.33393C0.0893923 8.50647 -0.00310831 8.73859 7.97572e-05 8.97929C0.00326783 9.21998 0.101884 9.44957 0.274258 9.6176L5.47977 14.6928L4.24994 21.8592C4.2211 22.0259 4.23955 22.1974 4.30319 22.3541C4.36684 22.5109 4.47313 22.6467 4.61002 22.7461C4.74691 22.8455 4.90891 22.9046 5.07767 22.9166C5.24642 22.9286 5.41517 22.8931 5.56478 22.8142L12.0001 19.4307L18.4355 22.8142C18.6112 22.9077 18.8152 22.9388 19.0107 22.9048C19.5038 22.8198 19.8353 22.3523 19.7503 21.8592L18.5205 14.6928L23.726 9.6176C23.8677 9.47875 23.9612 9.29739 23.9895 9.09903C24.066 8.60313 23.7203 8.14407 23.2244 8.0704Z" fill="#006FFD"/>
</mask>
<g mask="url(#mask0_228_1467)">
<rect width="24" height="24" fill="black"/>
</g>
</g>
<defs>
<clipPath id="clip0_228_1467">
<rect width="24" height="24" fill="white"/>
</clipPath>
</defs>
</svg>
