<svg width="24" height="24" viewBox="0 0 24 24" fill="none" xmlns="http://www.w3.org/2000/svg">
<path d="M20.25 4.875H16.125V3.75C16.125 3.25272 15.9275 2.77581 15.5758 2.42417C15.2242 2.07254 14.7473 1.875 14.25 1.875H9.75C9.25272 1.875 8.77581 2.07254 8.42417 2.42417C8.07254 2.77581 7.875 3.25272 7.875 3.75V4.875H3.75C3.65054 4.875 3.55516 4.91451 3.48484 4.98484C3.41451 5.05516 3.375 5.15054 3.375 5.25C3.375 5.34946 3.41451 5.44484 3.48484 5.51516C3.55516 5.58549 3.65054 5.625 3.75 5.625H4.875V19.5C4.875 19.7984 4.99353 20.0845 5.2045 20.2955C5.41548 20.5065 5.70163 20.625 6 20.625H18C18.2984 20.625 18.5845 20.5065 18.7955 20.2955C19.0065 20.0845 19.125 19.7984 19.125 19.5V5.625H20.25C20.3495 5.625 20.4448 5.58549 20.5152 5.51516C20.5855 5.44484 20.625 5.34946 20.625 5.25C20.625 5.15054 20.5855 5.05516 20.5152 4.98484C20.4448 4.91451 20.3495 4.875 20.25 4.875ZM8.625 3.75C8.625 3.45163 8.74353 3.16548 8.9545 2.9545C9.16548 2.74353 9.45163 2.625 9.75 2.625H14.25C14.5484 2.625 14.8345 2.74353 15.0455 2.9545C15.2565 3.16548 15.375 3.45163 15.375 3.75V4.875H8.625V3.75ZM18.375 19.5C18.375 19.5995 18.3355 19.6948 18.2652 19.7652C18.1948 19.8355 18.0995 19.875 18 19.875H6C5.90054 19.875 5.80516 19.8355 5.73484 19.7652C5.66451 19.6948 5.625 19.5995 5.625 19.5V5.625H18.375V19.5ZM10.125 9.75V15.75C10.125 15.8495 10.0855 15.9448 10.0152 16.0152C9.94484 16.0855 9.84946 16.125 9.75 16.125C9.65054 16.125 9.55516 16.0855 9.48483 16.0152C9.41451 15.9448 9.375 15.8495 9.375 15.75V9.75C9.375 9.65054 9.41451 9.55516 9.48483 9.48483C9.55516 9.41451 9.65054 9.375 9.75 9.375C9.84946 9.375 9.94484 9.41451 10.0152 9.48483C10.0855 9.55516 10.125 9.65054 10.125 9.75ZM14.625 9.75V15.75C14.625 15.8495 14.5855 15.9448 14.5152 16.0152C14.4448 16.0855 14.3495 16.125 14.25 16.125C14.1505 16.125 14.0552 16.0855 13.9848 16.0152C13.9145 15.9448 13.875 15.8495 13.875 15.75V9.75C13.875 9.65054 13.9145 9.55516 13.9848 9.48483C14.0552 9.41451 14.1505 9.375 14.25 9.375C14.3495 9.375 14.4448 9.41451 14.5152 9.48483C14.5855 9.55516 14.625 9.65054 14.625 9.75Z" fill="#FC5D5D"/>
</svg>
