<svg width="26" height="26" viewBox="0 0 26 26" fill="none" xmlns="http://www.w3.org/2000/svg">
<path d="M13 0.5C10.5277 0.5 8.11099 1.23311 6.05538 2.60663C3.99976 3.98015 2.39761 5.93238 1.45151 8.21646C0.505416 10.5005 0.257874 13.0139 0.74019 15.4386C1.2225 17.8634 2.41301 20.0907 4.16117 21.8388C5.90933 23.587 8.13661 24.7775 10.5614 25.2598C12.9861 25.7421 15.4995 25.4946 17.7835 24.5485C20.0676 23.6024 22.0199 22.0002 23.3934 19.9446C24.7669 17.889 25.5 15.4723 25.5 13C25.4964 9.68591 24.1782 6.5086 21.8348 4.16518C19.4914 1.82177 16.3141 0.503639 13 0.5ZM5.60876 21.8025C6.35064 20.4962 7.4255 19.4098 8.72386 18.654C10.0222 17.8982 11.4977 17.5 13 17.5C14.5023 17.5 15.9778 17.8982 17.2761 18.654C18.5745 19.4098 19.6494 20.4962 20.3913 21.8025C18.3224 23.5446 15.7047 24.5 13 24.5C10.2954 24.5 7.67762 23.5446 5.60876 21.8025ZM21.1463 21.1087C19.9041 19.0321 17.9128 17.5109 15.5825 16.8587C16.666 16.2826 17.5256 15.3606 18.0246 14.2395C18.5237 13.1184 18.6335 11.8626 18.3366 10.672C18.0397 9.48129 17.3531 8.42411 16.3861 7.66862C15.419 6.91314 14.2271 6.50275 13 6.50275C11.7729 6.50275 10.581 6.91314 9.61396 7.66862C8.64694 8.42411 7.96036 9.48129 7.66343 10.672C7.36651 11.8626 7.47631 13.1184 7.97537 14.2395C8.47442 15.3606 9.33405 16.2826 10.4175 16.8587C8.08724 17.5109 6.09589 19.0321 4.85376 21.1087C3.24957 19.4988 2.15838 17.4496 1.71798 15.22C1.27758 12.9903 1.50771 10.6802 2.37933 8.58122C3.25094 6.48226 4.72495 4.68863 6.61522 3.42682C8.5055 2.165 10.7273 1.49157 13 1.49157C15.2727 1.49157 17.4945 2.165 19.3848 3.42682C21.2751 4.68863 22.7491 6.48226 23.6207 8.58122C24.4923 10.6802 24.7224 12.9903 24.282 15.22C23.8416 17.4496 22.7504 19.4988 21.1463 21.1087ZM13 16.5C12.11 16.5 11.24 16.2361 10.4999 15.7416C9.75992 15.2471 9.18314 14.5443 8.84255 13.7221C8.50195 12.8998 8.41284 11.995 8.58647 11.1221C8.76011 10.2492 9.18869 9.44736 9.81803 8.81802C10.4474 8.18868 11.2492 7.7601 12.1221 7.58647C12.995 7.41283 13.8998 7.50195 14.7221 7.84254C15.5443 8.18314 16.2472 8.75991 16.7416 9.49993C17.2361 10.24 17.5 11.11 17.5 12C17.5 13.1935 17.0259 14.3381 16.182 15.182C15.3381 16.0259 14.1935 16.5 13 16.5Z" fill="black"/>
</svg>
