<svg width="23" height="19" viewBox="0 0 23 19" fill="none" xmlns="http://www.w3.org/2000/svg">
<path d="M0.5 3.99757H5.03625C5.15701 4.83006 5.57355 5.59122 6.20964 6.1417C6.84573 6.69217 7.65879 6.99514 8.5 6.99514C9.34121 6.99514 10.1543 6.69217 10.7904 6.1417C11.4264 5.59122 11.843 4.83006 11.9638 3.99757H22.5C22.6326 3.99757 22.7598 3.94489 22.8536 3.85112C22.9473 3.75736 23 3.63018 23 3.49757C23 3.36496 22.9473 3.23778 22.8536 3.14402C22.7598 3.05025 22.6326 2.99757 22.5 2.99757H11.9638C11.843 2.16508 11.4264 1.40392 10.7904 0.853445C10.1543 0.302969 9.34121 0 8.5 0C7.65879 0 6.84573 0.302969 6.20964 0.853445C5.57355 1.40392 5.15701 2.16508 5.03625 2.99757H0.5C0.367392 2.99757 0.240215 3.05025 0.146447 3.14402C0.0526785 3.23778 0 3.36496 0 3.49757C0 3.63018 0.0526785 3.75736 0.146447 3.85112C0.240215 3.94489 0.367392 3.99757 0.5 3.99757ZM8.5 0.99757C8.99445 0.99757 9.4778 1.14419 9.88893 1.4189C10.3 1.6936 10.6205 2.08405 10.8097 2.54086C10.9989 2.99768 11.0484 3.50034 10.952 3.9853C10.8555 4.47025 10.6174 4.91571 10.2678 5.26534C9.91814 5.61497 9.47268 5.85307 8.98773 5.94953C8.50277 6.046 8.00011 5.99649 7.54329 5.80727C7.08648 5.61805 6.69603 5.29762 6.42133 4.8865C6.14662 4.47537 6 3.99202 6 3.49757C6 2.83453 6.26339 2.19864 6.73223 1.7298C7.20107 1.26096 7.83696 0.99757 8.5 0.99757ZM22.5 14.9976H19.9638C19.843 14.1651 19.4264 13.4039 18.7904 12.8534C18.1543 12.303 17.3412 12 16.5 12C15.6588 12 14.8457 12.303 14.2096 12.8534C13.5736 13.4039 13.157 14.1651 13.0362 14.9976H0.5C0.367392 14.9976 0.240215 15.0502 0.146447 15.144C0.0526785 15.2378 0 15.365 0 15.4976C0 15.6302 0.0526785 15.7574 0.146447 15.8511C0.240215 15.9449 0.367392 15.9976 0.5 15.9976H13.0362C13.157 16.8301 13.5736 17.5912 14.2096 18.1417C14.8457 18.6922 15.6588 18.9951 16.5 18.9951C17.3412 18.9951 18.1543 18.6922 18.7904 18.1417C19.4264 17.5912 19.843 16.8301 19.9638 15.9976H22.5C22.6326 15.9976 22.7598 15.9449 22.8536 15.8511C22.9473 15.7574 23 15.6302 23 15.4976C23 15.365 22.9473 15.2378 22.8536 15.144C22.7598 15.0502 22.6326 14.9976 22.5 14.9976ZM16.5 17.9976C16.0055 17.9976 15.5222 17.8509 15.1111 17.5762C14.7 17.3015 14.3795 16.9111 14.1903 16.4543C14.0011 15.9975 13.9516 15.4948 14.048 15.0098C14.1445 14.5249 14.3826 14.0794 14.7322 13.7298C15.0819 13.3802 15.5273 13.1421 16.0123 13.0456C16.4972 12.9491 16.9999 12.9987 17.4567 13.1879C17.9135 13.3771 18.304 13.6975 18.5787 14.1086C18.8534 14.5198 19 15.0031 19 15.4976C19 16.1606 18.7366 16.7965 18.2678 17.2653C17.7989 17.7342 17.163 17.9976 16.5 17.9976Z" fill="#A4BE7B"/>
</svg>
