<svg xmlns="http://www.w3.org/2000/svg" xmlns:xlink="http://www.w3.org/1999/xlink" version="1.1" x="0px" y="0px" viewBox="0 0 100 100" style="enable-background:new 0 0 100 100;" xml:space="preserve" width="100"  height="100" ><path d="M15.385,50.041c0,17.945,13.445,32.844,31.273,34.655c0.035,0.003,0.069,0.005,0.103,0.005c0.507,0,0.941-0.384,0.994-0.899  c0.056-0.549-0.345-1.04-0.894-1.096c-16.805-1.707-29.477-15.75-29.477-32.665c0-16.869,12.979-31.078,29.678-32.675l-3.525,3.526  c-0.391,0.391-0.391,1.023,0,1.414c0.195,0.195,0.451,0.293,0.707,0.293s0.512-0.098,0.707-0.293l5.299-5.3  c0.391-0.391,0.391-1.023,0-1.414l-5.299-5.299c-0.391-0.391-1.023-0.391-1.414,0s-0.391,1.023,0,1.414l3.639,3.639  C29.314,16.896,15.385,32.042,15.385,50.041z"></path><path d="M85.057,49.959c0-17.945-13.445-32.844-31.273-34.655c-0.564-0.047-1.04,0.345-1.097,0.895  c-0.056,0.549,0.345,1.04,0.894,1.096c16.805,1.707,29.477,15.75,29.477,32.665c0,16.869-12.98,31.078-29.679,32.675l3.526-3.526  c0.391-0.391,0.391-1.023,0-1.414s-1.023-0.391-1.414,0l-5.3,5.3c-0.188,0.188-0.293,0.441-0.293,0.707s0.105,0.52,0.293,0.707  l5.3,5.299C55.685,89.902,55.94,90,56.196,90s0.512-0.098,0.707-0.293c0.391-0.391,0.391-1.023,0-1.414l-3.64-3.639  C71.127,83.104,85.057,67.958,85.057,49.959z"></path><path d="M49.757,71.942c4.165,0,8.086-1.613,11.046-4.548c2.977-2.951,4.625-6.885,4.644-11.077  c0.051-11.691-14.22-27.747-14.827-28.425c-0.19-0.212-0.461-0.333-0.745-0.333s-0.555,0.121-0.744,0.332  c-0.613,0.684-15.018,16.872-15.066,28.292c-0.019,4.191,1.597,8.139,4.548,11.115s6.884,4.625,11.076,4.644  C49.711,71.942,49.733,71.942,49.757,71.942z M36.063,56.191c0.04-9.242,10.843-22.605,13.81-26.103  C52.818,33.57,63.487,46.84,63.446,56.31c-0.032,7.53-6.168,13.634-13.69,13.633c-0.02,0-0.04,0-0.061,0  c-3.657-0.016-7.089-1.455-9.664-4.052C37.457,63.294,36.048,59.849,36.063,56.191z"></path></svg>